<?xml version="1.0" encoding="UTF-8"?>
<svg version="1.1" xmlns="http://www.w3.org/2000/svg" width="452" height="188">
<path d="M0 0 C149.16 0 298.32 0 452 0 C452 62.04 452 124.08 452 188 C302.84 188 153.68 188 0 188 C0 125.96 0 63.92 0 0 Z " fill="#FEFEFE" transform="translate(0,0)"/>
<path d="M0 0 C3.91601164 2.30313424 6.42011571 2.84425988 10.88671875 2.04296875 C16.21396199 0.51740292 21.33120652 -1.54869701 26.4375 -3.6875 C25.59494292 2.58809756 23.91130943 6.66700587 19.77734375 11.48828125 C18.27873961 13.52865482 17.67837667 14.79293 17.4375 17.3125 C18.1964745 19.46829007 18.1964745 19.46829007 19.375 21.6875 C22.71000171 29.48840365 22.77064633 39.19341836 20.24609375 47.32421875 C15.3038391 59.47691255 7.60580036 68.06263128 -4.5625 73.3125 C-15.58842482 77.08557947 -28.3837608 77.00725417 -38.92578125 71.890625 C-43.10930237 69.38671014 -46.89846656 66.52315557 -50.5625 63.3125 C-52.39842539 65.5564088 -54.21108218 67.7759504 -55.80078125 70.203125 C-56.21714844 70.83734375 -56.63351563 71.4715625 -57.0625 72.125 C-57.4440625 72.72957031 -57.825625 73.33414063 -58.21875 73.95703125 C-58.6621875 74.40433594 -59.105625 74.85164063 -59.5625 75.3125 C-60.8825 75.3125 -62.2025 75.3125 -63.5625 75.3125 C-61.86851202 70.68502065 -59.43022405 66.89410045 -56.70703125 62.8125 C-55.30318289 59.74607356 -55.52130358 58.47672133 -56.5625 55.3125 C-57.49196793 53.30252559 -58.5456094 51.40524162 -59.625 49.47265625 C-63.08863255 41.49186957 -62.9745998 30.0527252 -59.9375 22 C-59.19067016 20.41557974 -58.39869848 18.85162783 -57.5625 17.3125 C-57.15 16.54292969 -56.7375 15.77335937 -56.3125 14.98046875 C-50.78244137 5.75846757 -42.10984661 -0.50505113 -32 -3.875 C-21.55667668 -6.2512055 -9.19978071 -5.72007091 0 0 Z " fill="#31397B" transform="translate(251.5625,4.6875)"/>
<path d="M0 0 C0.99 0.33 1.98 0.66 3 1 C6.63816365 9.16755531 6.1936466 19.48827064 3.4375 27.875 C-1.29688395 39.0157007 -9.14186146 45.69820362 -20.125 50.375 C-29.85620765 53.63693356 -41.65856483 53.47771273 -51 49 C-54.47796941 46.84126036 -57.76785653 44.51006887 -61 42 C-58.52556168 36.3863489 -54.12261185 32.55348636 -48.66015625 29.8359375 C-44.40755116 28.22401015 -40.07501676 27.01030506 -35.6796875 25.859375 C-22.38970356 22.37099919 -10.9570719 18.91789099 -3.53125 6.5546875 C-2.30962627 4.38969878 -1.13362467 2.21207292 0 0 Z " fill="#FCFCFC" transform="translate(265,25)"/>
<path d="M0 0 C0.495 0.99 0.495 0.99 1 2 C-0.68416016 2.22042969 -0.68416016 2.22042969 -2.40234375 2.4453125 C-11.98907858 3.82539975 -20.2398622 5.07573664 -26.63720703 13.03759766 C-31.52549434 20.01728839 -35.68209641 27.33775254 -39.75 34.8125 C-41.05555673 37.19496564 -42.36390478 39.57588871 -43.671875 41.95703125 C-44.2400293 42.99835205 -44.80818359 44.03967285 -45.39355469 45.11254883 C-45.92368164 46.06540771 -46.45380859 47.0182666 -47 48 C-47.52239258 48.94963623 -48.04478516 49.89927246 -48.58300781 50.87768555 C-49.05061523 51.57804932 -49.51822266 52.27841309 -50 53 C-50.66 53 -51.32 53 -52 53 C-52.64690922 51.3962669 -53.29248764 49.79199694 -53.9375 48.1875 C-54.47697266 46.84751953 -54.47697266 46.84751953 -55.02734375 45.48046875 C-58.02505926 37.83569225 -58.66829328 27.83212619 -55.375 20.125 C-54.6196579 18.72971529 -53.82692455 17.35408895 -53 16 C-52.5875 15.24203125 -52.175 14.4840625 -51.75 13.703125 C-46.84426982 5.39683185 -38.90169309 -0.06322267 -29.89453125 -3.33984375 C-19.96908535 -5.60354194 -9.0159191 -4.97054695 0 0 Z " fill="#FBFBFC" transform="translate(250,7)"/>
<path d="M0 0 C3.63 0 7.26 0 11 0 C12.65 3.96 14.3 7.92 16 12 C16.61875 10.576875 17.2375 9.15375 17.875 7.6875 C19.09582189 4.87960965 20.28982274 2.5652659 22 0 C24.6015625 -0.29296875 24.6015625 -0.29296875 27.625 -0.1875 C29.12933594 -0.14689453 29.12933594 -0.14689453 30.6640625 -0.10546875 C31.43492187 -0.07066406 32.20578125 -0.03585938 33 0 C31.44435164 7.9235496 28.97360331 15.42504245 26.375 23.0625 C25.95476562 24.30966797 25.53453125 25.55683594 25.1015625 26.84179688 C24.07181966 29.89592053 23.03647576 32.94815472 22 36 C18.04 36 14.08 36 10 36 C6 25.375 6 25.375 6 22 C5.34 22 4.68 22 4 22 C3.87882813 22.59167969 3.75765625 23.18335937 3.6328125 23.79296875 C3.38144531 24.97826172 3.38144531 24.97826172 3.125 26.1875 C2.96257812 26.96480469 2.80015625 27.74210937 2.6328125 28.54296875 C2 31 2 31 0 36 C-3.96 36 -7.92 36 -12 36 C-11.44145718 31.1935721 -10.45378501 27.00513673 -8.75 22.48046875 C-8.3065625 21.29388672 -7.863125 20.10730469 -7.40625 18.88476562 C-6.9421875 17.66466797 -6.478125 16.44457031 -6 15.1875 C-5.53062558 13.93578085 -5.06187017 12.68382939 -4.59375 11.43164062 C-1.20041209 2.40082418 -1.20041209 2.40082418 0 0 Z " fill="#C52E2C" transform="translate(233,99)"/>
<path d="M0 0 C9.9 0 19.8 0 30 0 C29.01 3.3 28.02 6.6 27 10 C21.72 10 16.44 10 11 10 C11 10.99 11 11.98 11 13 C14.63 13 18.26 13 22 13 C20.125 21.875 20.125 21.875 19 23 C16.81360547 23.07258946 14.62499611 23.08373783 12.4375 23.0625 C10.64119141 23.04896484 10.64119141 23.04896484 8.80859375 23.03515625 C7.88175781 23.02355469 6.95492187 23.01195313 6 23 C6 24.32 6 25.64 6 27 C10.62 27 15.24 27 20 27 C19.34 29.97 18.68 32.94 18 36 C8.1 36 -1.8 36 -12 36 C-8.625 24.75 -8.625 24.75 -6.73828125 19.3359375 C-6.38032471 18.3051709 -6.02236816 17.2744043 -5.65356445 16.21240234 C-5.21101318 14.94605957 -4.76846191 13.6797168 -4.3125 12.375 C-2.889375 8.29125 -1.46625 4.2075 0 0 Z " fill="#C5302E" transform="translate(200,99)"/>
<path d="M0 0 C4.62 0 9.24 0 14 0 C14 11.88 14 23.76 14 36 C9.71 36 5.42 36 1 36 C1 34.68 1 33.36 1 32 C-0.62600941 32.0870005 -2.25089678 32.1951781 -3.875 32.3125 C-4.77992188 32.37050781 -5.68484375 32.42851562 -6.6171875 32.48828125 C-9.36221601 32.7882039 -9.36221601 32.7882039 -11 36 C-14.2578125 36.29296875 -14.2578125 36.29296875 -18.125 36.1875 C-20.04699219 36.14689453 -20.04699219 36.14689453 -22.0078125 36.10546875 C-22.99523437 36.07066406 -23.98265625 36.03585938 -25 36 C-21.49265349 29.56418941 -17.34535846 23.75238685 -12.98608398 17.86962891 C-10.45852098 14.44682143 -7.97373829 11.08163846 -5.86328125 7.3828125 C-4.0625 4.375 -4.0625 4.375 0 0 Z " fill="#C5302E" transform="translate(283,99)"/>
<path d="M0 0 C1.25159912 0.00523682 2.50319824 0.01047363 3.79272461 0.01586914 C4.78942421 0.01799156 4.78942421 0.01799156 5.80625916 0.02015686 C7.93590735 0.02577021 10.06545175 0.03832485 12.19506836 0.05102539 C13.63582205 0.05603868 15.07657739 0.06060188 16.51733398 0.06469727 C20.05577938 0.07574394 23.59416375 0.09301747 27.13256836 0.11352539 C26.47256836 3.41352539 25.81256836 6.71352539 25.13256836 10.11352539 C19.52256836 10.11352539 13.91256836 10.11352539 8.13256836 10.11352539 C8.13256836 11.43352539 8.13256836 12.75352539 8.13256836 14.11352539 C11.76256836 14.11352539 15.39256836 14.11352539 19.13256836 14.11352539 C18.47256836 17.08352539 17.81256836 20.05352539 17.13256836 23.11352539 C10.69756836 23.60852539 10.69756836 23.60852539 4.13256836 24.11352539 C2.48256836 28.07352539 0.83256836 32.03352539 -0.86743164 36.11352539 C-5.48743164 36.11352539 -10.10743164 36.11352539 -14.86743164 36.11352539 C-12.76357284 28.13474014 -10.36875864 20.30978493 -7.74243164 12.48852539 C-7.3827832 11.4018457 -7.02313477 10.31516602 -6.65258789 9.19555664 C-6.13631836 7.65061523 -6.13631836 7.65061523 -5.60961914 6.07446289 C-5.29879395 5.14424316 -4.98796875 4.21402344 -4.66772461 3.25561523 C-3.50323223 0.13869757 -3.50323223 0.13869757 0 0 Z " fill="#C5302E" transform="translate(168.867431640625,98.886474609375)"/>
<path d="M0 0 C1.74965358 -0.05429959 3.49979787 -0.09292823 5.25 -0.125 C6.22453125 -0.14820313 7.1990625 -0.17140625 8.203125 -0.1953125 C11.0196498 0.00137219 12.60949036 0.55431084 15 2 C15.25 7.625 15.25 7.625 13 11 C13.66 11.66 14.32 12.32 15 13 C14.77558365 19.17144966 14.77558365 19.17144966 12.3984375 21.7109375 C9.08290969 23.4928987 6.48776386 23.29132677 2.75 23.1875 C1.48671875 23.16042969 0.2234375 23.13335937 -1.078125 23.10546875 C-2.04234375 23.07066406 -3.0065625 23.03585938 -4 23 C-2.96324187 15.24637268 -1.83622588 7.60722152 0 0 Z " fill="#E0389C" transform="translate(4,158)"/>
<path d="M0 0 C6.40465481 9.60698222 7.60378769 19.88104577 5.375 31.1875 C1.49696263 43.67745485 -6.38353402 51.81166806 -17.6640625 57.9921875 C-23.81293049 60.64504359 -29.40447941 61.34016577 -36 61.3125 C-36.76828125 61.32861328 -37.5365625 61.34472656 -38.328125 61.36132812 C-43.62311489 61.36583067 -47.26945498 60.38414436 -52 58 C-52 57.01 -52 56.02 -52 55 C-50.824375 55.33 -49.64875 55.66 -48.4375 56 C-35.28457732 58.85843044 -23.74861349 57.18899318 -12.25 50.375 C-5.60964014 45.65058626 -0.69590411 38.4588352 1.5703125 30.625 C2.84232058 22.85418701 3.10867065 14.32679619 0 7 C-0.66 6.67 -1.32 6.34 -2 6 C-2 5.34 -2 4.68 -2 4 C-2.99 3.67 -3.98 3.34 -5 3 C-4.360625 2.87625 -3.72125 2.7525 -3.0625 2.625 C-2.381875 2.41875 -1.70125 2.2125 -1 2 C-0.67 1.34 -0.34 0.68 0 0 Z " fill="#404885" transform="translate(267,19)"/>
<path d="M0 0 C2.9375 2.0625 2.9375 2.0625 5 5 C5.24956143 9.65847994 4.50668061 11.41917101 1.4375 14.9375 C-1.04882765 16.74083644 -3.06310817 17.41324299 -6.125 17.625 C-10 17 -10 17 -12.5625 14.875 C-14 12 -14 12 -14.0625 9 C-11.67674359 2.2637466 -6.94857705 -0.81747965 0 0 Z " fill="#F9F7FA" transform="translate(143,164)"/>
<path d="M0 0 C2.875 1.625 2.875 1.625 5 4 C5.67897049 7.12326423 5.66762233 8.94211315 3.9375 11.68359375 C2.15742621 13.89279247 0.55922212 15.72038894 -2 17 C-9.09859155 17.45070423 -9.09859155 17.45070423 -12 16 C-13.67542573 12.64914853 -13.93989655 9.56489336 -13 6 C-9.67946865 1.46766554 -5.72239883 -1.24399975 0 0 Z " fill="#F7FBF7" transform="translate(401,164)"/>
<path d="M0 0 C2.1035765 5.66639835 -1.2313818 11.26445488 -3.1875 16.625 C-3.78788086 18.36136719 -3.78788086 18.36136719 -4.40039062 20.1328125 C-4.79806641 21.23625 -5.19574219 22.3396875 -5.60546875 23.4765625 C-5.96793701 24.48799316 -6.33040527 25.49942383 -6.70385742 26.54150391 C-8.15388764 29.29189086 -9.11635464 29.97955708 -12 31 C-11.01 27.535 -11.01 27.535 -10 24 C-14.62 24 -19.24 24 -24 24 C-24 22.68 -24 21.36 -24 20 C-17.565 19.505 -17.565 19.505 -11 19 C-10.01 16.03 -9.02 13.06 -8 10 C-11.63 10 -15.26 10 -19 10 C-19 9.01 -19 8.02 -19 7 C-13.72 7 -8.44 7 -3 7 C-2.67 5.02 -2.34 3.04 -2 1 C-1.34 0.67 -0.68 0.34 0 0 Z " fill="#F9ECEC" transform="translate(230,102)"/>
<path d="M0 0 C1.58246707 -0.08153933 3.16616273 -0.13943557 4.75 -0.1875 C6.07257813 -0.23970703 6.07257813 -0.23970703 7.421875 -0.29296875 C10.51005135 0.05796038 11.80992505 0.81994827 14 3 C14.5625 6.375 14.5625 6.375 14 10 C11.5625 12.875 11.5625 12.875 9 15 C8.67 15.33 8.34 15.66 8 16 C6.31391034 16.07205511 4.62499341 16.08386068 2.9375 16.0625 C2.01839844 16.05347656 1.09929687 16.04445312 0.15234375 16.03515625 C-0.55792969 16.02355469 -1.26820313 16.01195312 -2 16 C-1.85890014 13.89551062 -1.71195825 11.7914123 -1.5625 9.6875 C-1.48128906 8.51574219 -1.40007812 7.34398437 -1.31640625 6.13671875 C-1 3 -1 3 0 0 Z " fill="#ECF5F6" transform="translate(437,165)"/>
<path d="M0 0 C1.58246707 -0.08153933 3.16616273 -0.13943557 4.75 -0.1875 C6.07257813 -0.23970703 6.07257813 -0.23970703 7.421875 -0.29296875 C10.51005135 0.05796038 11.80992505 0.81994827 14 3 C14.5625 6.375 14.5625 6.375 14 10 C11.5625 12.875 11.5625 12.875 9 15 C8.67 15.33 8.34 15.66 8 16 C6.31391034 16.07205511 4.62499341 16.08386068 2.9375 16.0625 C2.01839844 16.05347656 1.09929687 16.04445312 0.15234375 16.03515625 C-0.55792969 16.02355469 -1.26820313 16.01195312 -2 16 C-1.85890014 13.89551062 -1.71195825 11.7914123 -1.5625 9.6875 C-1.48128906 8.51574219 -1.40007812 7.34398437 -1.31640625 6.13671875 C-1 3 -1 3 0 0 Z " fill="#F7F4F8" transform="translate(152,165)"/>
<path d="M0 0 C1.0209375 0.8353125 1.0209375 0.8353125 2.0625 1.6875 C2.0625 2.6775 2.0625 3.6675 2.0625 4.6875 C1.4025 4.6875 0.7425 4.6875 0.0625 4.6875 C-0.5975 3.6975 -1.2575 2.7075 -1.9375 1.6875 C-4.98702584 0.96855481 -7.86939076 1.10461223 -10.9375 1.6875 C-13.69319447 3.86909145 -15.37338747 5.55927494 -16.9375 8.6875 C-17.1727732 10.79604036 -17.1727732 10.79604036 -17.1875 13.125 C-17.21328125 13.90746094 -17.2390625 14.68992188 -17.265625 15.49609375 C-17.1002576 17.74156454 -17.1002576 17.74156454 -15.68359375 19.4296875 C-13.61549955 20.91945558 -12.2736493 21.1681435 -9.75 21.375 C-8.491875 21.478125 -7.23375 21.58125 -5.9375 21.6875 C-5.9375 22.0175 -5.9375 22.3475 -5.9375 22.6875 C-14.9127527 23.31489631 -14.9127527 23.31489631 -19 20.8125 C-21.48297739 18.08923448 -21.89270643 17.15335316 -22.25 13.4375 C-21.78643637 7.87473644 -19.44343544 5.04651491 -15.375 1.375 C-10.5079361 -1.99450578 -5.41347205 -2.41878538 0 0 Z " fill="#424D9B" transform="translate(261.9375,158.3125)"/>
<path d="M0 0 C0.99 0.33 1.98 0.66 3 1 C3.94921875 3.06640625 3.94921875 3.06640625 4.6875 5.5625 C4.93886719 6.38878906 5.19023437 7.21507812 5.44921875 8.06640625 C5.63097656 8.70449219 5.81273437 9.34257812 6 10 C7.14352916 7.71294169 7.10334439 6.40735238 7.0625 3.875 C7.041875 2.59625 7.02125 1.3175 7 0 C7.99 0 8.98 0 10 0 C11.19287411 3.87684087 12 6.91621923 12 11 C12.66 11 13.32 11 14 11 C14.2475 10.29875 14.495 9.5975 14.75 8.875 C16.16088026 5.62997541 17.97895398 2.89683263 20 0 C20.66 0.33 21.32 0.66 22 1 C20.73351229 2.9403434 19.46164538 4.87717647 18.1875 6.8125 C17.47980469 7.89144531 16.77210938 8.97039062 16.04296875 10.08203125 C14.4639955 12.33727603 13.0316883 14.17340327 11 16 C10.67 13.69 10.34 11.38 10 9 C9.34 9 8.68 9 8 9 C7.690625 9.78375 7.38125 10.5675 7.0625 11.375 C6 14 6 14 5 16 C4.34 16 3.68 16 3 16 C2.49411853 14.08487728 1.99551609 12.16783078 1.5 10.25 C1.2215625 9.18265625 0.943125 8.1153125 0.65625 7.015625 C0 4 0 4 0 0 Z " fill="#59BF67" transform="translate(366,165)"/>
<path d="M0 0 C1.62463842 -0.05395478 3.24978541 -0.09277195 4.875 -0.125 C5.77992187 -0.14820313 6.68484375 -0.17140625 7.6171875 -0.1953125 C10 0 10 0 12 2 C11.63318342 4.93453261 11.13562754 5.86437246 9 8 C6.31160615 8.26991906 3.70858064 8.08737357 1 8 C0.87625 9.134375 0.7525 10.26875 0.625 11.4375 C0.41875 12.613125 0.2125 13.78875 0 15 C-0.99 15.495 -0.99 15.495 -2 16 C-2.20674944 10.21101581 -1.59162079 5.57067277 0 0 Z " fill="#D24CA4" transform="translate(102,165)"/>
<path d="M0 0 C0.66 0.33 1.32 0.66 2 1 C-1.04116251 4.34527876 -4.04817272 6.70406506 -7.875 9.125 C-13.66470524 13.0481734 -16.63147044 17.99023703 -20 24 C-22 27 -22 27 -25 28 C-21.88206289 16.151839 -14.47418911 8.0633291 -4.125 2 C-1.8828125 0.75 -1.8828125 0.75 0 0 Z " fill="#414985" transform="translate(216,2)"/>
<path d="M0 0 C-5.23176085 2.28021435 -10.37700633 4.18437993 -15.9375 5.5 C-30.91912747 9.10633286 -41.20602519 14.93535505 -51 27 C-51 22.03405702 -47.36547624 19.39681215 -44 16 C-34.79005979 7.14215006 -22.90402818 3.50085078 -10.75 0.5625 C-10.02296875 0.38630127 -9.2959375 0.21010254 -8.546875 0.02856445 C-5.19974851 -0.72144862 -3.31383662 -1.10461221 0 0 Z " fill="#DADCE7" transform="translate(262,24)"/>
<path d="M0 0 C2.8842454 0.34485543 3.8207818 0.78255407 5.703125 3.06640625 C6.21359375 3.89011719 6.7240625 4.71382812 7.25 5.5625 C7.77078125 6.38878906 8.2915625 7.21507812 8.828125 8.06640625 C9.21484375 8.70449219 9.6015625 9.34257812 10 10 C10.12117188 9.36191406 10.24234375 8.72382813 10.3671875 8.06640625 C10.61855469 6.82697266 10.61855469 6.82697266 10.875 5.5625 C11.03742188 4.73878906 11.19984375 3.91507813 11.3671875 3.06640625 C11.57601563 2.38449219 11.78484375 1.70257813 12 1 C12.66 0.67 13.32 0.34 14 0 C13.85833643 1.91697937 13.71150416 3.83357723 13.5625 5.75 C13.48128906 6.81734375 13.40007812 7.8846875 13.31640625 8.984375 C13.05909227 11.43679962 12.68187782 13.63921291 12 16 C11.34 16 10.68 16 10 16 C8.5368217 14.02559073 7.19286936 12.06761129 5.875 10 C5.31619141 9.14148438 5.31619141 9.14148438 4.74609375 8.265625 C3.82449592 6.84778218 2.91144179 5.42439275 2 4 C1.01 7.96 0.02 11.92 -1 16 C-1.66 16 -2.32 16 -3 16 C-2.69075786 13.89535207 -2.3774944 11.7912947 -2.0625 9.6875 C-1.88847656 8.51574219 -1.71445312 7.34398437 -1.53515625 6.13671875 C-1 3 -1 3 0 0 Z " fill="#4197CD" transform="translate(309,165)"/>
<path d="M0 0 C6.8359375 -0.1953125 6.8359375 -0.1953125 9 0 C9.66 0.66 10.32 1.32 11 2 C10.67028521 5.29714793 10.3773161 6.6226839 8 9 C4.98173347 9.27240673 2.03629378 9.08675125 -1 9 C-0.67 6.03 -0.34 3.06 0 0 Z " fill="#FDF8FB" transform="translate(5,170)"/>
<path d="M0 0 C1.62463842 -0.05395478 3.24978541 -0.09277195 4.875 -0.125 C6.23238281 -0.15980469 6.23238281 -0.15980469 7.6171875 -0.1953125 C10 0 10 0 12 2 C11.9375 4.5 11.9375 4.5 11 7 C8.4375 8.3125 8.4375 8.3125 6 9 C6.7425 10.175625 6.7425 10.175625 7.5 11.375 C9 14 9 14 9 16 C8.01 16 7.02 16 6 16 C2 9.25 2 9.25 2 7 C5.465 6.505 5.465 6.505 9 6 C8.67 4.68 8.34 3.36 8 2 C5.03 1.505 5.03 1.505 2 1 C1.95101562 1.58007812 1.90203125 2.16015625 1.8515625 2.7578125 C1.40350595 7.43923092 0.701979 11.57485459 -1 16 C-1.66 16 -2.32 16 -3 16 C-2.69075786 13.89535207 -2.3774944 11.7912947 -2.0625 9.6875 C-1.88847656 8.51574219 -1.71445313 7.34398437 -1.53515625 6.13671875 C-1 3 -1 3 0 0 Z " fill="#926DAF" transform="translate(117,165)"/>
<path d="M0 0 C1.60875 -0.020625 3.2175 -0.04125 4.875 -0.0625 C5.77992187 -0.07410156 6.68484375 -0.08570313 7.6171875 -0.09765625 C10 0 10 0 12 1 C12.125 3.375 12.125 3.375 12 6 C11.34 6.66 10.68 7.32 10 8 C8.68 8 7.36 8 6 8 C7.32 10.64 8.64 13.28 10 16 C6 15 6 15 4.734375 13.15234375 C4.40953125 12.42144531 4.0846875 11.69054687 3.75 10.9375 C3.41484375 10.20402344 3.0796875 9.47054687 2.734375 8.71484375 C2.49203125 8.14894531 2.2496875 7.58304688 2 7 C4.31 6.34 6.62 5.68 9 5 C9 4.01 9 3.02 9 2 C6.69 1.67 4.38 1.34 2 1 C1.93941406 1.91523438 1.87882812 2.83046875 1.81640625 3.7734375 C1.69072266 5.55621094 1.69072266 5.55621094 1.5625 7.375 C1.48128906 8.55835938 1.40007812 9.74171875 1.31640625 10.9609375 C1 14 1 14 0 16 C-0.99 16 -1.98 16 -3 16 C-2.01 10.72 -1.02 5.44 0 0 Z " fill="#CB3598" transform="translate(75,165)"/>
<path d="M0 0 C6.93 0 13.86 0 21 0 C19.68 0.33 18.36 0.66 17 1 C16.90912109 1.99580078 16.90912109 1.99580078 16.81640625 3.01171875 C15.98418278 11.78207381 15.98418278 11.78207381 15 16 C14.01 16 13.02 16 12 16 C12.55145271 10.76119922 13.42922093 6.02649303 15 1 C12.03 1 9.06 1 6 1 C5.95101562 1.66386719 5.90203125 2.32773438 5.8515625 3.01171875 C5.10896309 11.78207381 5.10896309 11.78207381 3 16 C2.34 16 1.68 16 1 16 C1.30836232 13.87439563 1.62181614 11.74952935 1.9375 9.625 C2.11152344 8.44164062 2.28554688 7.25828125 2.46484375 6.0390625 C3 3 3 3 4 1 C2.68 0.67 1.36 0.34 0 0 Z " fill="#DE2B96" transform="translate(37,165)"/>
<path d="M0 0 C1.62463842 -0.05395478 3.24978541 -0.09277195 4.875 -0.125 C6.23238281 -0.15980469 6.23238281 -0.15980469 7.6171875 -0.1953125 C10 0 10 0 12 2 C11.9375 4.5 11.9375 4.5 11 7 C8.4375 8.3125 8.4375 8.3125 6 9 C6.7425 10.175625 6.7425 10.175625 7.5 11.375 C9 14 9 14 9 16 C4.97449681 14.6581656 4.11714364 12.5772427 2 9 C2 8.34 2 7.68 2 7 C3.98 6.67 5.96 6.34 8 6 C8 4.68 8 3.36 8 2 C5.03 1.505 5.03 1.505 2 1 C1.93941406 1.58007812 1.87882812 2.16015625 1.81640625 2.7578125 C1.33983439 7.20092863 0.78991334 11.59905423 0 16 C-0.99 16 -1.98 16 -3 16 C-2.69075786 13.89535207 -2.3774944 11.7912947 -2.0625 9.6875 C-1.88847656 8.51574219 -1.71445312 7.34398437 -1.53515625 6.13671875 C-1 3 -1 3 0 0 Z " fill="#57BF65" transform="translate(342,165)"/>
<path d="M0 0 C1.57529969 2.95197464 2.66804755 5.85815922 3.625 9.0625 C3.88539063 9.91972656 4.14578125 10.77695313 4.4140625 11.66015625 C5 14 5 14 5 17 C4.01 17 3.02 17 2 17 C1.67 15.35 1.34 13.7 1 12 C-4.15998377 12.37409251 -4.15998377 12.37409251 -8.4375 15.0625 C-9.2109375 16.0215625 -9.2109375 16.0215625 -10 17 C-8.51364884 12.78345644 -6.38750841 9.37521395 -3.875 5.6875 C-3.15054687 4.61886719 -2.42609375 3.55023438 -1.6796875 2.44921875 C-0.84824219 1.23685547 -0.84824219 1.23685547 0 0 Z " fill="#4699CE" transform="translate(299,164)"/>
<path d="M0 0 C3.26738025 0.2904338 5.3867751 0.48568235 7.9375 2.625 C9.53710048 6.20057755 9.1104484 8.27673184 8 12 C4.85184851 15.60885658 2.68920567 17.29205493 -2.125 17.625 C-6 17 -6 17 -8.5625 14.875 C-10 12 -10 12 -10.0625 9 C-8.76531132 5.33734961 -6.90134491 3.52937761 -4 1 C-3.01 1.33 -2.02 1.66 -1 2 C-1.825 2.66 -2.65 3.32 -3.5 4 C-6.85305515 8.02366618 -6.43160977 9.90700467 -6 15 C-1.01432906 15.40817755 -1.01432906 15.40817755 3.4375 13.4375 C5.61999672 10.03280512 5.63734462 7.96569988 5 4 C2.64167228 1.52791204 2.64167228 1.52791204 0 0 Z " fill="#916CAF" transform="translate(139,164)"/>
<path d="M0 0 C5.36170213 0.59574468 5.36170213 0.59574468 7.875 2.1875 C9.62424521 5.00572839 9.51128619 6.74055057 9 10 C7.17241752 12.92413196 5.13237723 15.43381139 2 17 C-5.09859155 17.45070423 -5.09859155 17.45070423 -8 16 C-9.63881338 12.72237323 -9.76627215 9.51664185 -9 6 C-6.5 3 -6.5 3 -4 1 C-3.01 1.33 -2.02 1.66 -1 2 C-1.64453125 2.38800781 -2.2890625 2.77601563 -2.953125 3.17578125 C-5.20878584 4.83946485 -5.20878584 4.83946485 -5.609375 7.48046875 C-5.65578125 8.37378906 -5.7021875 9.26710937 -5.75 10.1875 C-5.80671875 11.08855469 -5.8634375 11.98960937 -5.921875 12.91796875 C-5.94765625 13.60503906 -5.9734375 14.29210937 -6 15 C-1.01432906 15.40817755 -1.01432906 15.40817755 3.4375 13.4375 C5.61999672 10.03280512 5.63734462 7.96569988 5 4 C2.64167228 1.52791204 2.64167228 1.52791204 0 0 Z " fill="#4DBB5C" transform="translate(397,164)"/>
<path d="M0 0 C1.62490954 -0.02698189 3.24994633 -0.04638757 4.875 -0.0625 C5.77992188 -0.07410156 6.68484375 -0.08570313 7.6171875 -0.09765625 C10 0 10 0 12 1 C12.125 3.375 12.125 3.375 12 6 C11.34 6.66 10.68 7.32 10 8 C8.68 8 7.36 8 6 8 C7.32 10.64 8.64 13.28 10 16 C6 15 6 15 4.734375 13.15234375 C4.40953125 12.42144531 4.0846875 11.69054687 3.75 10.9375 C3.41484375 10.20402344 3.0796875 9.47054687 2.734375 8.71484375 C2.49203125 8.14894531 2.2496875 7.58304688 2 7 C4.31 6.34 6.62 5.68 9 5 C9 4.01 9 3.02 9 2 C6.69 1.67 4.38 1.34 2 1 C1.93941406 1.74765625 1.87882812 2.4953125 1.81640625 3.265625 C1.73261719 4.25046875 1.64882813 5.2353125 1.5625 6.25 C1.48128906 7.22453125 1.40007812 8.1990625 1.31640625 9.203125 C1.04925416 11.56461753 0.64628032 13.71901065 0 16 C-0.66 16 -1.32 16 -2 16 C-1.85833643 14.08302063 -1.71150416 12.16642277 -1.5625 10.25 C-1.48128906 9.18265625 -1.40007812 8.1153125 -1.31640625 7.015625 C-1.05909227 4.56320038 -0.68187782 2.36078709 0 0 Z " fill="#26909E" transform="translate(410,165)"/>
<path d="M0 0 C1.58246707 -0.08153933 3.16616273 -0.13943557 4.75 -0.1875 C6.07257813 -0.23970703 6.07257813 -0.23970703 7.421875 -0.29296875 C10.51005135 0.05796038 11.80992505 0.81994827 14 3 C14.5625 6.375 14.5625 6.375 14 10 C11.5625 12.875 11.5625 12.875 9 15 C8.67 15.33 8.34 15.66 8 16 C6.31391034 16.07205511 4.62499341 16.08386068 2.9375 16.0625 C2.01839844 16.05347656 1.09929687 16.04445312 0.15234375 16.03515625 C-0.55792969 16.02355469 -1.26820313 16.01195312 -2 16 C-1.85890014 13.89551062 -1.71195825 11.7914123 -1.5625 9.6875 C-1.48128906 8.51574219 -1.40007812 7.34398437 -1.31640625 6.13671875 C-1 3 -1 3 0 0 Z M2 1 C0.27071163 7.91159038 0.27071163 7.91159038 0 15 C5.81931402 14.82829215 5.81931402 14.82829215 10.5 11.75 C12.1322222 8.75759264 12.70200572 7.33452719 12 4 C9.62130509 1.34684029 8.32875347 1.01896655 4.75 0.8125 C3.8425 0.874375 2.935 0.93625 2 1 Z " fill="#906AAE" transform="translate(152,165)"/>
<path d="M0 0 C1.58246707 -0.08153933 3.16616273 -0.13943557 4.75 -0.1875 C6.07257813 -0.23970703 6.07257813 -0.23970703 7.421875 -0.29296875 C10.51005135 0.05796038 11.80992505 0.81994827 14 3 C14.5625 6.375 14.5625 6.375 14 10 C11.5 12.9375 11.5 12.9375 9 15 C8.01 14.67 7.02 14.34 6 14 C6.825 13.278125 7.65 12.55625 8.5 11.8125 C11.18797224 9.27606444 11.18797224 9.27606444 11.5 6.3125 C11.20110118 3.63137811 11.20110118 3.63137811 8 2 C6.0103005 1.60986284 4.00980131 1.26797351 2 1 C1.93941406 1.59167969 1.87882812 2.18335938 1.81640625 2.79296875 C1.37987629 6.90978208 0.91328654 10.95544533 0 15 C1.65 15 3.3 15 5 15 C5 15.33 5 15.66 5 16 C2.69 16 0.38 16 -2 16 C-1.85890014 13.89551062 -1.71195825 11.7914123 -1.5625 9.6875 C-1.48128906 8.51574219 -1.40007812 7.34398437 -1.31640625 6.13671875 C-1 3 -1 3 0 0 Z " fill="#3096A3" transform="translate(437,165)"/>
<path d="M0 0 C7.875 0.875 7.875 0.875 9 2 C9.25 4.4375 9.25 4.4375 9 7 C5.3558226 9.4294516 3.28758728 9.16179575 -1 9 C-1.125 2.25 -1.125 2.25 0 0 Z " fill="#FCF3F8" transform="translate(7,159)"/>
<path d="M0 0 C0.66 0 1.32 0 2 0 C1.64732964 7.0534073 -2.27586356 11.50326166 -7.29296875 16.1015625 C-11.68846718 19.7011387 -11.68846718 19.7011387 -14 21 C-14.99 20.67 -15.98 20.34 -17 20 C-14.42853268 17.35290129 -12.03219524 15.02397518 -9.0625 12.8125 C-5.42794383 9.90109842 -3.49210895 6.05401782 -1.296875 2.01171875 C-0.86890625 1.34785156 -0.4409375 0.68398438 0 0 Z " fill="#394280" transform="translate(267,54)"/>
<path d="M0 0 C0.99 0 1.98 0 3 0 C2.67 4.62 2.34 9.24 2 14 C5.465 13.505 5.465 13.505 9 13 C9.99 8.71 10.98 4.42 12 0 C12.33 0 12.66 0 13 0 C13.31364748 5.95930219 12.80867326 9.70673117 10 15 C6.98675805 16.50662097 4.31713623 16.17770373 1 16 C-1 14 -1 14 -1.1875 10.25 C-1.1047681 6.76253238 -0.68505673 3.42528367 0 0 Z " fill="#3B66AA" transform="translate(170,165)"/>
<path d="M0 0 C0.99 0.66 1.98 1.32 3 2 C2.67 2.66 2.34 3.32 2 4 C1.01 3.34 0.02 2.68 -1 2 C-4.3651283 2.14021368 -6.30291137 2.39585652 -8.875 4.625 C-10.39365855 7.83105694 -10.20189694 10.50045311 -10 14 C-5.22237362 15.01687046 -5.22237362 15.01687046 -0.5625 14.0625 C-0.046875 13.711875 0.46875 13.36125 1 13 C0.34 14.32 -0.32 15.64 -1 17 C-9.02638522 17.61741425 -9.02638522 17.61741425 -12.5625 15.375 C-14.46543651 12.23101795 -14.6646293 10.61853729 -14 7 C-9.81271315 2.02052375 -6.60614971 -0.55051248 0 0 Z " fill="#3F69AC" transform="translate(199,164)"/>
<path d="M0 0 C0.66 0.99 1.32 1.98 2 3 C-0.31 3 -2.62 3 -5 3 C-5.33 4.32 -5.66 5.64 -6 7 C-5.030625 7.2475 -4.06125 7.495 -3.0625 7.75 C0 9 0 9 1.125 10.875 C1 13 1 13 -0.5625 15.25 C-3.58527075 17.42019439 -5.3586795 17.33102914 -9 17 C-9 16.01 -9 15.02 -9 14 C-7.35 14.33 -5.7 14.66 -4 15 C-3.67 13.68 -3.34 12.36 -3 11 C-4.98 9.68 -6.96 8.36 -9 7 C-8.06137533 1.55597689 -5.68683214 -0.87489725 0 0 Z " fill="#5D66A9" transform="translate(224,164)"/>
<path d="M0 0 C2.97 0 5.94 0 9 0 C9 0.33 9 0.66 9 1 C7.02 1 5.04 1 3 1 C2.79503906 2.18078125 2.59007812 3.3615625 2.37890625 4.578125 C2.10684695 6.13542997 1.83470732 7.6927209 1.5625 9.25 C1.42779297 10.02730469 1.29308594 10.80460938 1.15429688 11.60546875 C1.02216797 12.35957031 0.89003906 13.11367187 0.75390625 13.890625 C0.63345947 14.58188477 0.5130127 15.27314453 0.38891602 15.98535156 C-0.00244416 18.01266117 -0.48089751 20.00194515 -1 22 C-1.66 22 -2.32 22 -3 22 C-3.45755719 14.37404682 -1.74536299 7.3970146 0 0 Z " fill="#DB188C" transform="translate(4,158)"/>
<path d="M0 0 C3.63 0 7.26 0 11 0 C11 0.33 11 0.66 11 1 C8.03 1 5.06 1 2 1 C1.67 2.98 1.34 4.96 1 7 C3.64 7 6.28 7 9 7 C9 7.33 9 7.66 9 8 C6.36 8 3.72 8 1 8 C0.67 10.31 0.34 12.62 0 15 C2.64 15 5.28 15 8 15 C8 15.33 8 15.66 8 16 C4.37 16 0.74 16 -3 16 C-2.30744705 10.57500185 -1.22995712 5.32981419 0 0 Z " fill="#CE3E9D" transform="translate(61,165)"/>
<path d="M0 0 C3.63 0 7.26 0 11 0 C11 0.33 11 0.66 11 1 C8.36 1 5.72 1 3 1 C2.67 2.98 2.34 4.96 2 7 C4.31 7 6.62 7 9 7 C9 7.33 9 7.66 9 8 C6.36 8 3.72 8 1 8 C0.67 10.31 0.34 12.62 0 15 C2.97 15 5.94 15 9 15 C9 15.33 9 15.66 9 16 C5.37 16 1.74 16 -2 16 C-1.85833643 14.08302063 -1.71150416 12.16642277 -1.5625 10.25 C-1.48128906 9.18265625 -1.40007813 8.1153125 -1.31640625 7.015625 C-1 4 -1 4 0 0 Z " fill="#DF329A" transform="translate(24,165)"/>
<path d="M0 0 C3.63 0 7.26 0 11 0 C11 0.33 11 0.66 11 1 C8.03 1 5.06 1 2 1 C1.67 2.98 1.34 4.96 1 7 C3.64 7 6.28 7 9 7 C9 7.33 9 7.66 9 8 C6.36 8.33 3.72 8.66 1 9 C0.67 10.98 0.34 12.96 0 15 C2.64 15 5.28 15 8 15 C8 15.33 8 15.66 8 16 C4.37 16 0.74 16 -3 16 C-2.69177379 13.7077546 -2.37829126 11.41621545 -2.0625 9.125 C-1.88847656 7.84882813 -1.71445312 6.57265625 -1.53515625 5.2578125 C-1 2 -1 2 0 0 Z " fill="#2D8CC8" transform="translate(279,165)"/>
<path d="M0 0 C3.3 0 6.6 0 10 0 C10 0.33 10 0.66 10 1 C7.36 1 4.72 1 2 1 C1.67 2.98 1.34 4.96 1 7 C3.64 7 6.28 7 9 7 C9 7.33 9 7.66 9 8 C6.03 8 3.06 8 0 8 C-0.33 10.31 -0.66 12.62 -1 15 C1.97 15 4.94 15 8 15 C8 15.33 8 15.66 8 16 C4.37 16 0.74 16 -3 16 C-2.48263876 10.39525319 -1.71036463 5.3591425 0 0 Z " fill="#1C83C3" transform="translate(328,165)"/>
<path d="M0 0 C3.63 0 7.26 0 11 0 C11 0.33 11 0.66 11 1 C9.35 1 7.7 1 6 1 C5.93941406 1.58007812 5.87882813 2.16015625 5.81640625 2.7578125 C5.33983439 7.20092863 4.78991334 11.59905423 4 16 C3.01 16 2.02 16 1 16 C1.96355353 6.58997722 1.96355353 6.58997722 3 2 C2.01 1.34 1.02 0.68 0 0 Z " fill="#4770B0" transform="translate(204,165)"/>
<path d="M0 0 C2.31 0 4.62 0 7 0 C7.625 1.875 7.625 1.875 8 4 C5.6120592 6.3879408 4.23091381 6.35381724 1 7 C0.34 7.66 -0.32 8.32 -1 9 C-0.67 6.03 -0.34 3.06 0 0 Z " fill="#EDF6F6" transform="translate(412,166)"/>
<path d="M0 0 C2.31 0 4.62 0 7 0 C7.625 1.875 7.625 1.875 8 4 C5.6120592 6.3879408 4.23091381 6.35381724 1 7 C0.34 7.66 -0.32 8.32 -1 9 C-0.67 6.03 -0.34 3.06 0 0 Z " fill="#FAEDF5" transform="translate(77,166)"/>
<path d="M0 0 C0.66 0 1.32 0 2 0 C1.47462276 5.0302076 0.89405214 10.01885239 0 15 C1.98 15 3.96 15 6 15 C6 15.33 6 15.66 6 16 C3.03 16 0.06 16 -3 16 C-2.69075786 13.89535207 -2.3774944 11.7912947 -2.0625 9.6875 C-1.88847656 8.51574219 -1.71445312 7.34398437 -1.53515625 6.13671875 C-1 3 -1 3 0 0 Z " fill="#3096A3" transform="translate(426,165)"/>
<path d="M0 0 C0.99 0 1.98 0 3 0 C2.68917128 1.75029762 2.37626821 3.50022694 2.0625 5.25 C1.88847656 6.22453125 1.71445312 7.1990625 1.53515625 8.203125 C1.09620271 10.49721795 0.59651408 12.74291971 0 15 C2.31 15 4.62 15 7 15 C7 15.33 7 15.66 7 16 C4.03 16 1.06 16 -2 16 C-2.2396943 10.36718401 -1.38529821 5.45461169 0 0 Z " fill="#545EA4" transform="translate(267,165)"/>
<path d="M0 0 C1.98 0 3.96 0 6 0 C6.33 1.65 6.66 3.3 7 5 C4.69 5.33 2.38 5.66 0 6 C0 4.02 0 2.04 0 0 Z " fill="#FDF8FB" transform="translate(104,166)"/>
<path d="M0 0 C1.0209375 0.8353125 1.0209375 0.8353125 2.0625 1.6875 C2.0625 2.6775 2.0625 3.6675 2.0625 4.6875 C1.4025 4.6875 0.7425 4.6875 0.0625 4.6875 C-0.5975 3.6975 -1.2575 2.7075 -1.9375 1.6875 C-3.97252446 1.28498196 -3.97252446 1.28498196 -6.25 1.4375 C-7.44882813 1.47617188 -7.44882813 1.47617188 -8.671875 1.515625 C-11.15629552 1.70409828 -13.52391295 2.06463883 -15.9375 2.6875 C-11.55325213 -2.11429529 -5.89646463 -2.63459058 0 0 Z " fill="#5F68AA" transform="translate(261.9375,158.3125)"/>
<path d="M0 0 C0.99 0.33 1.98 0.66 3 1 C3.3125 4.1875 3.3125 4.1875 3 8 C0.5 10.9375 0.5 10.9375 -2 13 C-2.99 12.67 -3.98 12.34 -5 12 C-4.175 11.319375 -3.35 10.63875 -2.5 9.9375 C0.36068704 7.15521993 0.36068704 7.15521993 0.3125 3.1875 C0.209375 2.135625 0.10625 1.08375 0 0 Z " fill="#188A99" transform="translate(448,167)"/>
<path d="M0 0 C1.32 0.33 2.64 0.66 4 1 C3.6875 3.375 3.6875 3.375 3 6 C-0.4352048 8.29013653 -1.985331 8.17842973 -6 8 C-6 7.01 -6 6.02 -6 5 C-4.35 5.33 -2.7 5.66 -1 6 C-0.4465236 3.92446352 0 2.15634036 0 0 Z " fill="#4B55A0" transform="translate(221,173)"/>
<path d="M0 0 C2 2 2 2 2.23046875 3.875 C2.21628906 4.57625 2.20210938 5.2775 2.1875 6 C2.18105469 6.70125 2.17460938 7.4025 2.16796875 8.125 C2 10 2 10 1 12 C0.01 12 -0.98 12 -2 12 C-1.34 8.04 -0.68 4.08 0 0 Z " fill="#D352A7" transform="translate(74,169)"/>
<path d="M0 0 C5.36170213 0.59574468 5.36170213 0.59574468 7.875 2.1875 C9.49664405 4.80014875 9.20031953 6.99520702 9 10 C8.01 10 7.02 10 6 10 C5.62875 8.3603125 5.62875 8.3603125 5.25 6.6875 C3.97997149 2.94091591 3.34243648 1.89404734 0 0 Z " fill="#60C26D" transform="translate(397,164)"/>
<path d="M0 0 C0.99 0.66 1.98 1.32 3 2 C2.67 2.66 2.34 3.32 2 4 C1.01 3.34 0.02 2.68 -1 2 C-4.75904624 2.15995941 -6.50970372 2.57421639 -9.375 5.0625 C-9.91125 5.701875 -10.4475 6.34125 -11 7 C-11 5.68 -11 4.36 -11 3 C-7.41840481 0.05045102 -4.56601553 -0.49630604 0 0 Z " fill="#5278B4" transform="translate(199,164)"/>
<path d="M0 0 C2.09350689 3.4019487 2.17942163 6.05272412 2 10 C1.34 9.34 0.68 8.68 0 8 C0 7.01 0 6.02 0 5 C-0.66 5 -1.32 5 -2 5 C-2.66 6.32 -3.32 7.64 -4 9 C-4 5.00095031 -2.27413033 3.19799578 0 0 Z " fill="#308EC9" transform="translate(299,164)"/>
<path d="M0 0 C1.77706209 2.66559313 2.87548273 5.0280615 4 8 C1.83125748 7.49396008 0.00032373 7.00016187 -2 6 C-2 5.34 -2 4.68 -2 4 C-2.99 3.67 -3.98 3.34 -5 3 C-4.360625 2.87625 -3.72125 2.7525 -3.0625 2.625 C-2.0415625 2.315625 -2.0415625 2.315625 -1 2 C-0.67 1.34 -0.34 0.68 0 0 Z " fill="#4C548C" transform="translate(267,19)"/>
<path d="M0 0 C0.33 0 0.66 0 1 0 C1 2.64 1 5.28 1 8 C-0.65 8 -2.3 8 -4 8 C-2.87548273 5.0280615 -1.77706209 2.66559313 0 0 Z " fill="#F5DEDD" transform="translate(284,114)"/>
<path d="M0 0 C5.44736842 0.48421053 5.44736842 0.48421053 7.875 2.75 C9.18152386 5.36304771 9.24038873 7.11533524 9 10 C8.01 9.67 7.02 9.34 6 9 C5.690625 8.05125 5.38125 7.1025 5.0625 6.125 C3.90704491 2.72660269 3.0097604 1.80585624 0 0 Z " fill="#9977B5" transform="translate(139,164)"/>
<path d="M0 0 C0.33 0.99 0.66 1.98 1 3 C-3.82029598 7.82029598 -3.82029598 7.82029598 -7.1796875 8.33203125 C-9.1228691 8.31474316 -11.06392229 8.16690325 -13 8 C-11 6 -11 6 -7.625 5.6875 C-3.84470596 5.33572462 -3.84470596 5.33572462 -1.5625 2.4375 C-1.046875 1.633125 -0.53125 0.82875 0 0 Z " fill="#56BE64" transform="translate(404,173)"/>
<path d="M0 0 C0.99 0 1.98 0 3 0 C2.67 2.97 2.34 5.94 2 9 C1.01 9 0.02 9 -1 9 C-0.67 6.03 -0.34 3.06 0 0 Z " fill="#62C36E" transform="translate(340,172)"/>
<path d="M0 0 C0.66 0 1.32 0 2 0 C2.33 1.98 2.66 3.96 3 6 C1.02 6 -0.96 6 -3 6 C-2 4 -1 2 0 0 Z " fill="#D0E6F2" transform="translate(297,169)"/>
<path d="M0 0 C0.99 0.33 1.98 0.66 3 1 C0.65122581 3.50535913 -1.0911787 4.90564909 -4.55859375 5.265625 C-7.04963675 5.25149142 -9.51524028 5.17369194 -12 5 C-12 4.67 -12 4.34 -12 4 C-10.95199219 3.81824219 -10.95199219 3.81824219 -9.8828125 3.6328125 C-8.51769531 3.38144531 -8.51769531 3.38144531 -7.125 3.125 C-5.76761719 2.88136719 -5.76761719 2.88136719 -4.3828125 2.6328125 C-1.83494012 2.16955297 -1.83494012 2.16955297 0 0 Z " fill="#9977B5" transform="translate(162,176)"/>
<path d="M0 0 C0.66 0.66 1.32 1.32 2 2 C1.9765625 4.3828125 1.9765625 4.3828125 1.625 7.125 C1.51414062 8.03507813 1.40328125 8.94515625 1.2890625 9.8828125 C1.19367188 10.58148438 1.09828125 11.28015625 1 12 C0.34 12 -0.32 12 -1 12 C-0.67 8.04 -0.34 4.08 0 0 Z " fill="#2891A0" transform="translate(409,169)"/>
<path d="M0 0 C3.63 0 7.26 0 11 0 C11 0.33 11 0.66 11 1 C8.03 1 5.06 1 2 1 C2 2.32 2 3.64 2 5 C1.01 5.33 0.02 5.66 -1 6 C-0.67 4.02 -0.34 2.04 0 0 Z " fill="#3F96CD" transform="translate(279,165)"/>
<path d="M0 0 C0.33 0 0.66 0 1 0 C0.8864371 1.64666203 0.75882619 3.29236082 0.625 4.9375 C0.52058594 6.31228516 0.52058594 6.31228516 0.4140625 7.71484375 C0.27742188 8.46894531 0.14078125 9.22304687 0 10 C-0.99 10.495 -0.99 10.495 -2 11 C-2.25 3.375 -2.25 3.375 0 0 Z " fill="#CB3096" transform="translate(102,170)"/>
<path d="M0 0 C0.99 0.33 1.98 0.66 3 1 C2.42655063 3.86724686 2.1385485 4.8614515 0 7 C-3.125 7.125 -3.125 7.125 -6 7 C-2.25 5 -2.25 5 0 5 C0 3.35 0 1.7 0 0 Z " fill="#CD3C9C" transform="translate(111,166)"/>
<path d="M0 0 C0.33 0 0.66 0 1 0 C1.28571429 8.57142857 1.28571429 8.57142857 -1 12 C-2.36884358 7.48281619 -1.47075246 4.41225737 0 0 Z " fill="#6083BA" transform="translate(182,165)"/>
<path d="M0 0 C0.99 0 1.98 0 3 0 C2.67 1.32 2.34 2.64 2 4 C4.97 4 7.94 4 11 4 C11 4.33 11 4.66 11 5 C7.37 5 3.74 5 0 5 C0 3.35 0 1.7 0 0 Z " fill="#4298CE" transform="translate(325,176)"/>
<path d="M0 0 C0.99 0 1.98 0 3 0 C2.67 2.64 2.34 5.28 2 8 C1.01 8 0.02 8 -1 8 C-0.67 5.36 -0.34 2.72 0 0 Z " fill="#E34BA6" transform="translate(50,173)"/>
<path d="M0 0 C0.99 0 1.98 0 3 0 C2.67 2.64 2.34 5.28 2 8 C1.01 8.33 0.02 8.66 -1 9 C-0.67 6.03 -0.34 3.06 0 0 Z " fill="#4B56A0" transform="translate(267,165)"/>
<path d="M0 0 C3.75376152 1.25125384 4.24073289 2.5652404 6 6 C6 6.66 6 7.32 6 8 C2.24623848 6.74874616 1.75926711 5.4347596 0 2 C0 1.34 0 0.68 0 0 Z " fill="#48B957" transform="translate(345,173)"/>
<path d="M0 0 C0.99 0.33 1.98 0.66 3 1 C3 3.31 3 5.62 3 8 C2.01 8.33 1.02 8.66 0 9 C0 6.03 0 3.06 0 0 Z " fill="#8359A4" transform="translate(163,167)"/>
<path d="M0 0 C0.66 0 1.32 0 2 0 C1.45773019 3.79588866 -0.20127563 5.47211993 -3 8 C-2.45276317 4.62537285 -1.9451 2.91765 0 0 Z " fill="#515BA3" transform="translate(230,178)"/>
<path d="M0 0 C0.33 0.66 0.66 1.32 1 2 C1.66 2 2.32 2 3 2 C2.34 4.31 1.68 6.62 1 9 C0.34 9 -0.32 9 -1 9 C-0.67 6.03 -0.34 3.06 0 0 Z " fill="#E13FA0" transform="translate(39,172)"/>
<path d="M0 0 C1.37478516 0.01740234 1.37478516 0.01740234 2.77734375 0.03515625 C3.69644531 0.04417969 4.61554688 0.05320313 5.5625 0.0625 C6.27277344 0.07410156 6.98304688 0.08570313 7.71484375 0.09765625 C7.71484375 0.42765625 7.71484375 0.75765625 7.71484375 1.09765625 C5.07484375 1.09765625 2.43484375 1.09765625 -0.28515625 1.09765625 C-0.94515625 2.41765625 -1.60515625 3.73765625 -2.28515625 5.09765625 C-2.84765625 3.16015625 -2.84765625 3.16015625 -3.28515625 1.09765625 C-2.28515625 0.09765625 -2.28515625 0.09765625 0 0 Z " fill="#3E95CC" transform="translate(330.28515625,164.90234375)"/>
<path d="M0 0 C-0.33 0.99 -0.66 1.98 -1 3 C-3.31 3 -5.62 3 -8 3 C-5.53387212 -0.1151089 -3.89156016 -0.31553191 0 0 Z " fill="#363F7E" transform="translate(244,76)"/>
<path d="M0 0 C0.33 0 0.66 0 1 0 C1.25 2.75 1.25 2.75 1 6 C-1 8.375 -1 8.375 -3 10 C-3.66 9.67 -4.32 9.34 -5 9 C-4.360625 8.071875 -3.72125 7.14375 -3.0625 6.1875 C-0.91377907 3.15780057 -0.91377907 3.15780057 0 0 Z " fill="#845BA5" transform="translate(146,170)"/>
<path d="M0 0 C0.66 0.33 1.32 0.66 2 1 C1.34 2.98 0.68 4.96 0 7 C-0.66 6.34 -1.32 5.68 -2 5 C-2 3.68 -2 2.36 -2 1 C-1.34 0.67 -0.68 0.34 0 0 Z " fill="#484F89" transform="translate(270,49)"/>
</svg>
