<?xml version="1.0" encoding="UTF-8"?>
<svg version="1.1" xmlns="http://www.w3.org/2000/svg" width="168" height="72">
<path d="M0 0 C2.64 0 5.28 0 8 0 C8 14.52 8 29.04 8 44 C5.36 44 2.72 44 0 44 C-0.99 44.495 -0.99 44.495 -2 45 C-6.9509132 45.54317573 -10.89488185 45.52241949 -15.4375 43.375 C-19.18601076 39.90077051 -20.8081505 36.65517219 -21.3984375 31.5625 C-21.39070313 30.386875 -21.38296875 29.21125 -21.375 28 C-21.38273437 26.824375 -21.39046875 25.64875 -21.3984375 24.4375 C-20.83862404 19.60773683 -19.10828168 16.3160845 -16 12.625 C-11.48892461 10.18150083 -7.03247344 10.50566686 -2 11 C-1.34 11.33 -0.68 11.66 0 12 C0 8.04 0 4.08 0 0 Z M-9.6875 17.8125 C-13.09859237 21.039209 -13.68480283 24.3981213 -14 29 C-13.29761525 33.13626575 -12.49420454 34.55286256 -9.375 37.375 C-8.59125 37.91125 -7.8075 38.4475 -7 39 C-3.90108642 38.07870137 -2.27211886 37.32841931 -0.1875 34.8125 C1.80824559 30.08573413 1.52785833 26.47244692 -0.1875 21.6875 C-1.81358523 18.90411024 -1.81358523 18.90411024 -4.375 17.4375 C-7.03701575 16.79471698 -7.03701575 16.79471698 -9.6875 17.8125 Z " fill="#0090FF" transform="translate(74,26)"/>
<path d="M0 0 C1.22589844 -0.01417969 2.45179688 -0.02835938 3.71484375 -0.04296875 C6.87330919 0.1744752 8.54038782 0.33248942 11.0625 2.1875 C12.93664458 5.24282102 13.33886932 7.6590214 13.44140625 11.21484375 C13.49264648 12.65053711 13.49264648 12.65053711 13.54492188 14.11523438 C13.57134766 15.10845703 13.59777344 16.10167969 13.625 17.125 C13.68524451 19.09256007 13.74893241 21.06001833 13.81640625 23.02734375 C13.84033447 23.89738037 13.8642627 24.76741699 13.88891602 25.66381836 C14.06637275 28.24380466 14.50121884 30.66555204 15.0625 33.1875 C14.29164063 33.17589844 13.52078125 33.16429687 12.7265625 33.15234375 C11.72367188 33.14332031 10.72078125 33.13429687 9.6875 33.125 C8.19089844 33.10759766 8.19089844 33.10759766 6.6640625 33.08984375 C4.07817547 33.00743398 4.07817547 33.00743398 2.0625 34.1875 C-9.11288683 35.25472657 -9.11288683 35.25472657 -14.25 32.25 C-16.53461027 28.10385544 -16.96217984 24.81535731 -15.9375 20.1875 C-13.00711774 15.88350106 -9.98573562 14.51509614 -5.07421875 13.5234375 C-1.69986915 12.99291819 1.66555712 12.55145817 5.0625 12.1875 C5.0625 10.8675 5.0625 9.5475 5.0625 8.1875 C0.37765809 7.20633146 0.37765809 7.20633146 -4.25 7.9375 C-6.22622927 9.25396448 -6.22622927 9.25396448 -7.9375 12.1875 C-11.0625 12.375 -11.0625 12.375 -13.9375 12.1875 C-14.75 10.0625 -14.75 10.0625 -14.9375 7.1875 C-10.50189625 0.78051681 -7.53047231 0.0395093 0 0 Z M-1.4375 20.0625 C-2.2315625 20.22492187 -3.025625 20.38734375 -3.84375 20.5546875 C-6.13096996 21.06610896 -6.13096996 21.06610896 -7.9375 23.1875 C-7.6189823 25.29570797 -7.6189823 25.29570797 -6.9375 27.1875 C-3.61257474 28.26321111 -2.06162974 28.22808088 1.3125 27.125 C4.36443598 25.41086895 4.36443598 25.41086895 4.9375 22 C4.97875 21.071875 5.02 20.14375 5.0625 19.1875 C2.78192981 19.1875 0.79442846 19.59147614 -1.4375 20.0625 Z " fill="#0090FF" transform="translate(150.9375,36.8125)"/>
<path d="M0 0 C1.43472656 -0.02126953 1.43472656 -0.02126953 2.8984375 -0.04296875 C5.74124061 0.1973255 7.29475543 0.56043496 9.625 2.1875 C11.85229568 5.60120184 11.85819591 8.46873315 11.8203125 12.484375 C11.81386719 13.68964844 11.80742188 14.89492188 11.80078125 16.13671875 C11.78402344 17.39097656 11.76726563 18.64523438 11.75 19.9375 C11.74097656 21.20722656 11.73195313 22.47695313 11.72265625 23.78515625 C11.69909005 26.91946093 11.66618832 30.05338541 11.625 33.1875 C8.985 33.1875 6.345 33.1875 3.625 33.1875 C3.13 21.3075 3.13 21.3075 2.625 9.1875 C0.975 8.5275 -0.675 7.8675 -2.375 7.1875 C-5.52807687 8.8516239 -6.23350772 9.76302315 -7.375 13.1875 C-7.5214714 14.74016653 -7.62194074 16.29745662 -7.69140625 17.85546875 C-7.73330078 18.74814453 -7.77519531 19.64082031 -7.81835938 20.56054688 C-7.87733398 21.95370117 -7.87733398 21.95370117 -7.9375 23.375 C-7.98068359 24.31537109 -8.02386719 25.25574219 -8.06835938 26.22460938 C-8.17438665 28.54542854 -8.27645029 30.86635325 -8.375 33.1875 C-11.015 33.1875 -13.655 33.1875 -16.375 33.1875 C-16.375 22.6275 -16.375 12.0675 -16.375 1.1875 C-13.405 1.1875 -10.435 1.1875 -7.375 1.1875 C-4.801671 -0.0991645 -2.87276962 0.01925449 0 0 Z " fill="#0090FF" transform="translate(35.375,36.8125)"/>
<path d="M0 0 C3.0573079 1.30311484 3.86985734 2.27815105 6 5 C6.9375 8.25 6.9375 8.25 7 11 C6 12 6 12 2.4375 12.0625 C1.303125 12.041875 0.16875 12.02125 -1 12 C-1.33 10.68 -1.66 9.36 -2 8 C-5.28750944 6.96678275 -6.57797876 6.79858077 -9.75 8.3125 C-12.08851102 9.80434405 -12.08851102 9.80434405 -13 12 C-13.63457069 17.121892 -13.78950519 20.81574222 -10.875 25.1875 C-8.11626222 27.26133758 -8.11626222 27.26133758 -4.8125 27.125 C-1.78868957 26.26485515 -1.78868957 26.26485515 -0.625 23.4375 C-0.315625 22.2309375 -0.315625 22.2309375 0 21 C5.75 20.875 5.75 20.875 8 22 C6.88744102 26.82108893 5.94630932 29.8907866 2 33 C-4.04648579 35.01549526 -10.73379973 34.99394749 -16.5625 32.4375 C-21.29888423 27.70111577 -22.18317129 23.56839242 -22.4375 17.0625 C-22.29099686 11.74843152 -21.4939572 7.15470556 -18 3 C-12.47391453 -1.14937776 -6.63909303 -0.88299104 0 0 Z " fill="#0090FF" transform="translate(125,37)"/>
<path d="M0 0 C2.64 0 5.28 0 8 0 C8 14.52 8 29.04 8 44 C5.36 44 2.72 44 0 44 C0 29.48 0 14.96 0 0 Z " fill="#0090FF" transform="translate(3,26)"/>
<path d="M0 0 C2.31 0 4.62 0 7 0 C7 10.56 7 21.12 7 32 C4.69 32 2.38 32 0 32 C0 21.44 0 10.88 0 0 Z " fill="#0090FF" transform="translate(90,38)"/>
<path d="M0 0 C2.31 0 4.62 0 7 0 C7 1.98 7 3.96 7 6 C4.69 6 2.38 6 0 6 C0 4.02 0 2.04 0 0 Z " fill="#0090FF" transform="translate(90,26)"/>
</svg>
