<?xml version="1.0" encoding="UTF-8"?>
<svg version="1.1" xmlns="http://www.w3.org/2000/svg" width="474" height="584">
<path d="M0 0 C156.42 0 312.84 0 474 0 C474 192.72 474 385.44 474 584 C317.58 584 161.16 584 0 584 C0 391.28 0 198.56 0 0 Z " fill="#E7DC2C" transform="translate(0,0)"/>
<path d="M0 0 C156.42 0 312.84 0 474 0 C474 192.72 474 385.44 474 584 C317.58 584 161.16 584 0 584 C0 391.28 0 198.56 0 0 Z M192 24 C192 24.66 192 25.32 192 26 C190.02 26 188.04 26 186 26 C186 26.66 186 27.32 186 28 C182.7 28 179.4 28 176 28 C176 28.66 176 29.32 176 30 C174.02 30 172.04 30 170 30 C170 30.66 170 31.32 170 32 C169.18015625 32.103125 168.3603125 32.20625 167.515625 32.3125 C163.37981837 33.12127996 159.66785995 34.47877965 155.75 36 C155.03070313 36.27328125 154.31140625 36.5465625 153.5703125 36.828125 C149.73145704 38.28948434 149.73145704 38.28948434 146 40 C146 40.66 146 41.32 146 42 C145.05125 42.144375 144.1025 42.28875 143.125 42.4375 C140.1065506 42.82935399 140.1065506 42.82935399 138 44 C138 44.66 138 45.32 138 46 C136.68 46 135.36 46 134 46 C134 46.66 134 47.32 134 48 C132.68 48 131.36 48 130 48 C130 48.66 130 49.32 130 50 C128.68 50 127.36 50 126 50 C126 50.66 126 51.32 126 52 C125.34 52 124.68 52 124 52 C124 52.66 124 53.32 124 54 C122.68 54 121.36 54 120 54 C120 54.66 120 55.32 120 56 C119.34 56 118.68 56 118 56 C118 56.66 118 57.32 118 58 C116.68 58 115.36 58 114 58 C114 58.66 114 59.32 114 60 C113.34 60 112.68 60 112 60 C112 60.66 112 61.32 112 62 C111.34 62 110.68 62 110 62 C110 62.66 110 63.32 110 64 C108.68 64 107.36 64 106 64 C106 64.66 106 65.32 106 66 C105.34 66 104.68 66 104 66 C104 66.66 104 67.32 104 68 C103.34 68 102.68 68 102 68 C102 68.66 102 69.32 102 70 C100.68 70 99.36 70 98 70 C98 70.66 98 71.32 98 72 C97.34 72 96.68 72 96 72 C96 72.66 96 73.32 96 74 C95.34 74 94.68 74 94 74 C94 74.66 94 75.32 94 76 C93.34 76 92.68 76 92 76 C92 76.66 92 77.32 92 78 C91.34 78 90.68 78 90 78 C90 78.66 90 79.32 90 80 C89.34 80 88.68 80 88 80 C88 80.66 88 81.32 88 82 C87.34 82 86.68 82 86 82 C86 82.66 86 83.32 86 84 C85.34 84 84.68 84 84 84 C84 84.66 84 85.32 84 86 C83.34 86 82.68 86 82 86 C82 86.66 82 87.32 82 88 C81.34 88 80.68 88 80 88 C80 88.66 80 89.32 80 90 C79.34 90 78.68 90 78 90 C78 90.66 78 91.32 78 92 C77.34 92 76.68 92 76 92 C76 93.32 76 94.64 76 96 C75.34 96 74.68 96 74 96 C74 96.66 74 97.32 74 98 C73.34 98 72.68 98 72 98 C72 98.66 72 99.32 72 100 C71.34 100 70.68 100 70 100 C70 100.66 70 101.32 70 102 C69.34 102 68.68 102 68 102 C68 103.32 68 104.64 68 106 C67.34 106 66.68 106 66 106 C66 106.66 66 107.32 66 108 C65.34 108 64.68 108 64 108 C64 109.32 64 110.64 64 112 C63.34 112 62.68 112 62 112 C62 112.66 62 113.32 62 114 C61.34 114 60.68 114 60 114 C60 115.32 60 116.64 60 118 C59.34 118 58.68 118 58 118 C58 118.66 58 119.32 58 120 C57.34 120 56.68 120 56 120 C56 121.32 56 122.64 56 124 C55.34 124 54.68 124 54 124 C54 124.66 54 125.32 54 126 C53.34 126 52.68 126 52 126 C52 127.32 52 128.64 52 130 C51.34 130 50.68 130 50 130 C50 131.32 50 132.64 50 134 C49.34 134 48.68 134 48 134 C48 135.32 48 136.64 48 138 C47.34 138 46.68 138 46 138 C46 139.32 46 140.64 46 142 C45.34 142 44.68 142 44 142 C42.99183944 144.58041096 41.9932889 147.16386944 41 149.75 C40.71382812 150.47960937 40.42765625 151.20921875 40.1328125 151.9609375 C39.86210938 152.66992188 39.59140625 153.37890625 39.3125 154.109375 C39.06113281 154.75874023 38.80976562 155.40810547 38.55078125 156.07714844 C37.81642273 158.30752974 37.81642273 158.30752974 38 162 C37.34 162 36.68 162 36 162 C36 163.98 36 165.96 36 168 C35.34 168 34.68 168 34 168 C34 169.98 34 171.96 34 174 C33.34 174 32.68 174 32 174 C32 176.64 32 179.28 32 182 C31.34 182 30.68 182 30 182 C30 184.64 30 187.28 30 190 C29.34 190 28.68 190 28 190 C28 193.96 28 197.92 28 202 C27.34 202 26.68 202 26 202 C25.94874518 209.39743038 25.91403685 216.79481397 25.89013672 224.19238281 C25.88015938 226.70216584 25.86657273 229.2119375 25.84912109 231.72167969 C25.5667927 256.11135995 25.5667927 256.11135995 30 280 C30.66 280 31.32 280 32 280 C32 282.64 32 285.28 32 288 C32.66 288 33.32 288 34 288 C33.89945313 289.17949219 33.89945313 289.17949219 33.796875 290.3828125 C34.07005024 295.24743305 35.59248768 299.32191513 37.25 303.875 C37.55035156 304.73480469 37.85070313 305.59460938 38.16015625 306.48046875 C39.85997473 311.24719377 41.75792725 315.758408 44.15917969 320.21533203 C45.0559936 322.11884819 45.55381496 323.9481136 46 326 C46.66 326 47.32 326 48 326 C48 327.32 48 328.64 48 330 C48.66 330 49.32 330 50 330 C50 331.32 50 332.64 50 334 C50.66 334 51.32 334 52 334 C52 334.66 52 335.32 52 336 C52.66 336 53.32 336 54 336 C54 337.32 54 338.64 54 340 C54.66 340 55.32 340 56 340 C56 341.32 56 342.64 56 344 C56.66 344 57.32 344 58 344 C58 344.66 58 345.32 58 346 C58.66 346 59.32 346 60 346 C60 347.32 60 348.64 60 350 C60.66 350 61.32 350 62 350 C62 350.66 62 351.32 62 352 C62.66 352 63.32 352 64 352 C64.144375 352.61875 64.28875 353.2375 64.4375 353.875 C64.93152225 356.03258322 64.93152225 356.03258322 66 358 C66.66 358 67.32 358 68 358 C68 358.66 68 359.32 68 360 C68.66 360 69.32 360 70 360 C70 361.32 70 362.64 70 364 C70.66 364 71.32 364 72 364 C72 364.66 72 365.32 72 366 C72.66 366 73.32 366 74 366 C74 366.66 74 367.32 74 368 C74.66 368 75.32 368 76 368 C76 368.66 76 369.32 76 370 C76.66 370 77.32 370 78 370 C78 371.32 78 372.64 78 374 C78.66 374 79.32 374 80 374 C80 374.66 80 375.32 80 376 C80.66 376 81.32 376 82 376 C82 376.66 82 377.32 82 378 C82.66 378 83.32 378 84 378 C84 378.66 84 379.32 84 380 C84.66 380 85.32 380 86 380 C86 380.66 86 381.32 86 382 C86.66 382 87.32 382 88 382 C88 382.66 88 383.32 88 384 C88.66 384 89.32 384 90 384 C90 384.66 90 385.32 90 386 C90.66 386 91.32 386 92 386 C92 386.66 92 387.32 92 388 C92.66 388 93.32 388 94 388 C94 388.66 94 389.32 94 390 C95.32 390 96.64 390 98 390 C98 390.66 98 391.32 98 392 C98.66 392 99.32 392 100 392 C100 392.66 100 393.32 100 394 C100.66 394 101.32 394 102 394 C102 394.66 102 395.32 102 396 C102.66 396 103.32 396 104 396 C104 396.66 104 397.32 104 398 C104.66 398 105.32 398 106 398 C106 398.66 106 399.32 106 400 C107.32 400 108.64 400 110 400 C110 400.66 110 401.32 110 402 C110.66 402 111.32 402 112 402 C112 402.66 112 403.32 112 404 C112.66 404 113.32 404 114 404 C114 404.66 114 405.32 114 406 C115.32 406 116.64 406 118 406 C118 406.66 118 407.32 118 408 C119.98 408.66 121.96 409.32 124 410 C124 410.66 124 411.32 124 412 C125.32 412 126.64 412 128 412 C128 412.66 128 413.32 128 414 C128.66 414 129.32 414 130 414 C130 414.66 130 415.32 130 416 C131.32 416 132.64 416 134 416 C134 416.66 134 417.32 134 418 C135.32 418 136.64 418 138 418 C138 418.66 138 419.32 138 420 C139.32 420 140.64 420 142 420 C142 420.66 142 421.32 142 422 C143.32 422 144.64 422 146 422 C146 422.66 146 423.32 146 424 C147.32 424 148.64 424 150 424 C150 424.66 150 425.32 150 426 C151.32 426 152.64 426 154 426 C154 426.66 154 427.32 154 428 C155.98 428 157.96 428 160 428 C160 428.66 160 429.32 160 430 C161.32 430 162.64 430 164 430 C164 430.66 164 431.32 164 432 C165.98 432 167.96 432 170 432 C170 432.66 170 433.32 170 434 C172.64 434 175.28 434 178 434 C178 434.66 178 435.32 178 436 C180.64 436 183.28 436 186 436 C186 436.66 186 437.32 186 438 C188.64 438 191.28 438 194 438 C194 438.66 194 439.32 194 440 C206.17203691 442.41385214 218.33762043 442.37230911 230.69921875 442.37060547 C234.20103068 442.37493939 237.70153815 442.41124379 241.203125 442.44921875 C267.36304017 443.12176447 267.36304017 443.12176447 292 436 C296.61335162 434.04819739 300.99991975 432.62501003 306 432 C306 431.34 306 430.68 306 430 C307.98 430 309.96 430 312 430 C312 429.34 312 428.68 312 428 C313.32 428 314.64 428 316 428 C316 427.34 316 426.68 316 426 C317.32 426 318.64 426 320 426 C320 425.34 320 424.68 320 424 C321.32 424 322.64 424 324 424 C324 423.34 324 422.68 324 422 C325.98 422 327.96 422 330 422 C330 421.34 330 420.68 330 420 C331.32 420 332.64 420 334 420 C334 419.34 334 418.68 334 418 C334.66 418 335.32 418 336 418 C336 417.34 336 416.68 336 416 C337.32 416 338.64 416 340 416 C340 415.34 340 414.68 340 414 C341.32 414 342.64 414 344 414 C344 413.34 344 412.68 344 412 C344.66 412 345.32 412 346 412 C346 411.34 346 410.68 346 410 C347.32 410 348.64 410 350 410 C350 409.34 350 408.68 350 408 C350.66 408 351.32 408 352 408 C352 407.34 352 406.68 352 406 C353.32 406 354.64 406 356 406 C356 405.34 356 404.68 356 404 C356.66 404 357.32 404 358 404 C358 403.34 358 402.68 358 402 C359.32 402 360.64 402 362 402 C362 401.34 362 400.68 362 400 C362.66 400 363.32 400 364 400 C364 399.34 364 398.68 364 398 C364.66 398 365.32 398 366 398 C366 397.34 366 396.68 366 396 C366.66 396 367.32 396 368 396 C368 395.34 368 394.68 368 394 C369.32 394 370.64 394 372 394 C372 393.34 372 392.68 372 392 C372.66 392 373.32 392 374 392 C374 391.34 374 390.68 374 390 C374.66 390 375.32 390 376 390 C376 389.34 376 388.68 376 388 C376.66 388 377.32 388 378 388 C378 387.34 378 386.68 378 386 C378.66 386 379.32 386 380 386 C380 385.34 380 384.68 380 384 C380.66 384 381.32 384 382 384 C382 383.34 382 382.68 382 382 C382.66 382 383.32 382 384 382 C384 381.34 384 380.68 384 380 C384.66 380 385.32 380 386 380 C386 379.34 386 378.68 386 378 C386.66 378 387.32 378 388 378 C388 377.34 388 376.68 388 376 C388.66 376 389.32 376 390 376 C390 375.34 390 374.68 390 374 C390.66 374 391.32 374 392 374 C392 373.34 392 372.68 392 372 C392.66 372 393.32 372 394 372 C394 371.34 394 370.68 394 370 C394.66 370 395.32 370 396 370 C396 368.68 396 367.36 396 366 C396.66 366 397.32 366 398 366 C398 365.34 398 364.68 398 364 C398.66 364 399.32 364 400 364 C400 363.34 400 362.68 400 362 C400.66 362 401.32 362 402 362 C402 361.34 402 360.68 402 360 C402.66 360 403.32 360 404 360 C404 358.68 404 357.36 404 356 C404.66 356 405.32 356 406 356 C406 355.34 406 354.68 406 354 C406.66 354 407.32 354 408 354 C410.2773501 351.18490007 410.2773501 351.18490007 410 348 C410.66 348 411.32 348 412 348 C412 346.68 412 345.36 412 344 C412.66 344 413.32 344 414 344 C414 343.34 414 342.68 414 342 C414.66 342 415.32 342 416 342 C416 340.68 416 339.36 416 338 C416.66 338 417.32 338 418 338 C418 336.68 418 335.36 418 334 C418.66 334 419.32 334 420 334 C420 332.68 420 331.36 420 330 C420.66 330 421.32 330 422 330 C422 329.34 422 328.68 422 328 C422.66 328 423.32 328 424 328 C424 326.68 424 325.36 424 324 C424.66 324 425.32 324 426 324 C427.31626692 320.38026598 428 317.90432869 428 314 C428.66 314 429.32 314 430 314 C430 312.68 430 311.36 430 310 C430.66 310 431.32 310 432 310 C432 308.02 432 306.04 432 304 C432.66 304 433.32 304 434 304 C434 302.02 434 300.04 434 298 C434.66 298 435.32 298 436 298 C436.33 296.7625 436.66 295.525 437 294.25 C437.185625 293.55390625 437.37125 292.8578125 437.5625 292.140625 C438.13349349 289.71098139 438.13349349 289.71098139 438 286 C438.66 286 439.32 286 440 286 C440.45996189 282.6668894 440.91763761 279.33346821 441.375 276 C441.50132812 275.08476562 441.62765625 274.16953125 441.7578125 273.2265625 C442.02801953 271.25405118 442.29323834 269.28085247 442.55444336 267.30712891 C442.8667032 264.98939096 443.19720797 262.67407216 443.54125977 260.36083984 C444.91826495 250.57166277 445.28109013 240.98713456 445.20581055 231.10693359 C445.18736235 228.60634265 445.18530319 226.1061213 445.18554688 223.60546875 C445.1604567 212.12426019 444.45390917 201.23861361 442 190 C441.70675873 188.59641108 441.41381526 187.19275991 441.12109375 185.7890625 C439.25589642 176.98652544 437.11917413 168.4615894 434 160 C433.34 160 432.68 160 432 160 C432 158.02 432 156.04 432 154 C431.34 154 430.68 154 430 154 C430 152.68 430 151.36 430 150 C429.34 150 428.68 150 428 150 C428 148.02 428 146.04 428 144 C427.34 144 426.68 144 426 144 C426 142.68 426 141.36 426 140 C425.34 140 424.68 140 424 140 C424 138.68 424 137.36 424 136 C423.34 136 422.68 136 422 136 C422 134.68 422 133.36 422 132 C421.34 132 420.68 132 420 132 C420 131.34 420 130.68 420 130 C419.34 130 418.68 130 418 130 C418 128.68 418 127.36 418 126 C417.34 126 416.68 126 416 126 C416 124.68 416 123.36 416 122 C415.34 122 414.68 122 414 122 C414 121.34 414 120.68 414 120 C413.34 120 412.68 120 412 120 C412 118.68 412 117.36 412 116 C411.34 116 410.68 116 410 116 C410 114.68 410 113.36 410 112 C409.34 112 408.68 112 408 112 C408 111.34 408 110.68 408 110 C407.34 110 406.68 110 406 110 C406 109.34 406 108.68 406 108 C405.34 108 404.68 108 404 108 C404 106.68 404 105.36 404 104 C403.34 104 402.68 104 402 104 C402 103.34 402 102.68 402 102 C401.34 102 400.68 102 400 102 C400 101.34 400 100.68 400 100 C399.34 100 398.68 100 398 100 C398 98.68 398 97.36 398 96 C397.34 96 396.68 96 396 96 C396 95.34 396 94.68 396 94 C395.34 94 394.68 94 394 94 C394 93.34 394 92.68 394 92 C393.34 92 392.68 92 392 92 C392 91.34 392 90.68 392 90 C391.34 90 390.68 90 390 90 C390 89.34 390 88.68 390 88 C389.34 88 388.68 88 388 88 C388 87.34 388 86.68 388 86 C387.34 86 386.68 86 386 86 C386 85.34 386 84.68 386 84 C385.34 84 384.68 84 384 84 C384 83.34 384 82.68 384 82 C383.34 82 382.68 82 382 82 C382 81.34 382 80.68 382 80 C381.34 80 380.68 80 380 80 C380 79.34 380 78.68 380 78 C379.34 78 378.68 78 378 78 C378 77.34 378 76.68 378 76 C377.34 76 376.68 76 376 76 C376 75.34 376 74.68 376 74 C375.34 74 374.68 74 374 74 C374 73.34 374 72.68 374 72 C373.34 72 372.68 72 372 72 C372 71.34 372 70.68 372 70 C371.34 70 370.68 70 370 70 C370 69.34 370 68.68 370 68 C368.68 68 367.36 68 366 68 C366 67.34 366 66.68 366 66 C365.34 66 364.68 66 364 66 C364 65.34 364 64.68 364 64 C363.34 64 362.68 64 362 64 C362 63.34 362 62.68 362 62 C360.68 62 359.36 62 358 62 C358 61.34 358 60.68 358 60 C357.34 60 356.68 60 356 60 C356 59.34 356 58.68 356 58 C355.34 58 354.68 58 354 58 C354 57.34 354 56.68 354 56 C352.68 56 351.36 56 350 56 C350 55.34 350 54.68 350 54 C349.34 54 348.68 54 348 54 C348 53.34 348 52.68 348 52 C346.68 52 345.36 52 344 52 C344 51.34 344 50.68 344 50 C342.68 50 341.36 50 340 50 C340 49.34 340 48.68 340 48 C338.68 48 337.36 48 336 48 C336 47.34 336 46.68 336 46 C335.34 46 334.68 46 334 46 C334 45.34 334 44.68 334 44 C332.68 44 331.36 44 330 44 C330 43.34 330 42.68 330 42 C328.68 42 327.36 42 326 42 C326 41.34 326 40.68 326 40 C323.45884998 39.04027826 320.91710543 38.08218506 318.375 37.125 C317.66214844 36.85558594 316.94929688 36.58617188 316.21484375 36.30859375 C308.32633982 33.13722107 308.32633982 33.13722107 300 32 C300 31.34 300 30.68 300 30 C298.7625 29.67 297.525 29.34 296.25 29 C295.20585938 28.7215625 295.20585938 28.7215625 294.140625 28.4375 C291.71098139 27.86650651 291.71098139 27.86650651 288 28 C288 27.34 288 26.68 288 26 C284.7 26 281.4 26 278 26 C278 25.34 278 24.68 278 24 C277.36497559 23.91435791 276.72995117 23.82871582 276.07568359 23.74047852 C273.17532581 23.34877417 270.27516225 22.95564936 267.375 22.5625 C266.37597656 22.42779297 265.37695312 22.29308594 264.34765625 22.15429688 C263.37441406 22.02216797 262.40117187 21.89003906 261.3984375 21.75390625 C260.06304932 21.57323608 260.06304932 21.57323608 258.70068359 21.38891602 C256.80906353 21.11651041 254.92291128 20.80456984 253.04248047 20.46337891 C247.63855217 19.64034441 242.20621261 19.8088799 236.75 19.8125 C234.87441406 19.8137085 234.87441406 19.8137085 232.9609375 19.81494141 C219.06525664 19.90626611 205.66423105 21.48149467 192 24 Z " fill="#138CC4" transform="translate(0,0)"/>
<path d="M0 0 C3.96 0 7.92 0 12 0 C12 153.12 12 306.24 12 464 C15.57436783 465.19145594 18.81779158 465.14388685 22.53751659 465.1386652 C23.70515418 465.14292853 23.70515418 465.14292853 24.89638039 465.14727798 C27.52632364 465.15565453 30.156223 465.15689551 32.78617859 465.15821838 C34.68205219 465.16278172 36.57792479 465.1677814 38.47379619 465.17318195 C43.70033831 465.18679848 48.92687391 465.19419156 54.15342915 465.20060861 C59.78329367 465.20859715 65.41314454 465.22230023 71.04299927 465.23532104 C80.80270143 465.25710578 90.56240496 465.27524295 100.32211876 465.29092598 C114.43315231 465.31360645 128.54417076 465.34175178 142.65519152 465.37124526 C165.54754646 465.41894356 188.43990677 465.46221018 211.33227539 465.50268555 C233.57446778 465.54202188 255.8166547 465.58344112 278.05883789 465.62768555 C279.08690352 465.62972934 279.08690352 465.62972934 280.13573815 465.63181442 C287.01845993 465.64549958 293.90118163 465.65922714 300.78390327 465.67298577 C358.52259122 465.78840199 416.26129042 465.89583594 474 466 C474 504.94 474 543.88 474 584 C317.58 584 161.16 584 0 584 C0 391.28 0 198.56 0 0 Z " fill="#000001" transform="translate(0,0)"/>
<path d="M0 0 C16.72707305 -0.04711784 33.45412396 -0.08218071 50.18124771 -0.10362434 C57.95125828 -0.11385404 65.72122717 -0.12775123 73.49121094 -0.15087891 C80.27853165 -0.17107168 87.06582214 -0.1837764 93.85317206 -0.18817699 C97.43338509 -0.19074155 101.01351179 -0.19658577 104.59369659 -0.21146011 C123.16677171 -0.28569012 141.49605718 0.38552803 160 2 C160 2.66 160 3.32 160 4 C160.6290625 3.97679688 161.258125 3.95359375 161.90625 3.9296875 C167.67016398 3.80815919 172.47263742 4.36226294 178 6 C178 6.66 178 7.32 178 8 C179.98 8 181.96 8 184 8 C184 8.66 184 9.32 184 10 C185.98 10 187.96 10 190 10 C190 10.66 190 11.32 190 12 C191.32 12 192.64 12 194 12 C194 12.66 194 13.32 194 14 C195.32 14 196.64 14 198 14 C198 14.66 198 15.32 198 16 C198.66 16 199.32 16 200 16 C200 16.66 200 17.32 200 18 C201.32 18 202.64 18 204 18 C204 18.66 204 19.32 204 20 C204.66 20 205.32 20 206 20 C206 20.66 206 21.32 206 22 C206.804375 22.0928125 206.804375 22.0928125 207.625 22.1875 C211.15507975 23.39515886 213.35374748 25.41388959 216 28 C216 29.32 216 30.64 216 32 C216.66 32 217.32 32 218 32 C218 32.66 218 33.32 218 34 C218.66 34 219.32 34 220 34 C220 35.32 220 36.64 220 38 C220.66 38 221.32 38 222 38 C222.67528223 39.57967807 223.33989694 41.16391903 224 42.75 C224.37125 43.63171875 224.7425 44.5134375 225.125 45.421875 C226 48 226 48 226 52 C226.66 52 227.32 52 228 52 C228 55.3 228 58.6 228 62 C228.66 62 229.32 62 230 62 C230 69.92 230 77.84 230 86 C229.34 86 228.68 86 228 86 C228 89.96 228 93.92 228 98 C227.34 98 226.68 98 226 98 C226.0928125 99.16402344 226.0928125 99.16402344 226.1875 100.3515625 C225.93271233 105.30930591 224.49233075 109.66273038 223 114.375 C222.71382813 115.30183594 222.42765625 116.22867188 222.1328125 117.18359375 C221.42933609 119.45816746 220.71823332 121.73005161 220 124 C219.34 124 218.68 124 218 124 C217.88785156 124.55171875 217.77570313 125.1034375 217.66015625 125.671875 C216.88639227 128.40065211 215.73182306 130.72772943 214.4375 133.25 C213.98246094 134.14203125 213.52742188 135.0340625 213.05859375 135.953125 C212.70925781 136.62859375 212.35992187 137.3040625 212 138 C211.34 138 210.68 138 210 138 C210 139.32 210 140.64 210 142 C209.34 142 208.68 142 208 142 C208 142.66 208 143.32 208 144 C207.34 144 206.68 144 206 144 C206 145.32 206 146.64 206 148 C205.34 148 204.68 148 204 148 C204 148.66 204 149.32 204 150 C203.34 150 202.68 150 202 150 C202 150.66 202 151.32 202 152 C201.34 152 200.68 152 200 152 C200 152.66 200 153.32 200 154 C199.34 154 198.68 154 198 154 C198 154.66 198 155.32 198 156 C197.34 156 196.68 156 196 156 C196 156.66 196 157.32 196 158 C195.34 158 194.68 158 194 158 C194 158.66 194 159.32 194 160 C192.68 160 191.36 160 190 160 C190 160.66 190 161.32 190 162 C189.34 162 188.68 162 188 162 C188 162.66 188 163.32 188 164 C187.34 164 186.68 164 186 164 C186 164.66 186 165.32 186 166 C184.68 166 183.36 166 182 166 C182 166.66 182 167.32 182 168 C181.34 168 180.68 168 180 168 C180 168.66 180 169.32 180 170 C178.68 170 177.36 170 176 170 C176 170.66 176 171.32 176 172 C174.68 172 173.36 172 172 172 C172 172.66 172 173.32 172 174 C163.22937562 177.65652105 154.45102466 180.60003885 145.1875 182.75 C143.94782471 183.04716919 143.94782471 183.04716919 142.68310547 183.3503418 C124.08140991 187.47485111 105.29589468 187.26483095 86.34521484 187.1373291 C82.91180957 187.11650434 79.4783727 187.10765886 76.04492188 187.09765625 C69.36319139 187.07585347 62.68163622 187.04146321 56 187 C55.01 194.425 55.01 194.425 54 202 C53.34 202 52.68 202 52 202 C52.02320313 202.70672852 52.04640625 203.41345703 52.0703125 204.14160156 C52.21728763 212.20161284 51.32906782 219.81151385 50 227.75 C49.71382812 229.52890625 49.71382812 229.52890625 49.421875 231.34375 C48.95624873 234.23063288 48.48218854 237.11584569 48 240 C47.34 240 46.68 240 46 240 C46 243.3 46 246.6 46 250 C45.34 250 44.68 250 44 250 C44 253.96 44 257.92 44 262 C43.34 262 42.68 262 42 262 C42 265.3 42 268.6 42 272 C12.96 272 -16.08 272 -46 272 C-46.89840477 267.50797614 -46.90338924 265.31619303 -46 261 C-45.67 261 -45.34 261 -45 261 C-44.67 257.37 -44.34 253.74 -44 250 C-43.34 250 -42.68 250 -42 250 C-42 246.04 -42 242.08 -42 238 C-41.34 238 -40.68 238 -40 238 C-40 234.04 -40 230.08 -40 226 C-39.34 226 -38.68 226 -38 226 C-38 222.04 -38 218.08 -38 214 C-37.34 214 -36.68 214 -36 214 C-36 210.04 -36 206.08 -36 202 C-35.34 202 -34.68 202 -34 202 C-34.02320312 201.3709375 -34.04640625 200.741875 -34.0703125 200.09375 C-34.08835937 199.2378125 -34.10640625 198.381875 -34.125 197.5 C-34.14820312 196.6646875 -34.17140625 195.829375 -34.1953125 194.96875 C-33.9945175 191.91666607 -33.29692469 189.17606744 -32.53900146 186.22241211 C-31.65278316 182.5683547 -31.01970752 178.87555101 -30.37890625 175.171875 C-30.23347885 174.34278625 -30.08805145 173.51369751 -29.93821716 172.65948486 C-29.63179447 170.90832803 -29.32680977 169.15691901 -29.02319336 167.40527344 C-28.57084877 164.79811933 -28.11295186 162.19198793 -27.65429688 159.5859375 C-25.5838891 147.75000149 -23.73189698 135.88997044 -22 124 C-21.34 124 -20.68 124 -20 124 C-20.04640625 123.38898438 -20.0928125 122.77796875 -20.140625 122.1484375 C-20.55358413 111.6769738 -19.73221809 97.46443618 -15 88 C-14.77377919 86.29636178 -14.59111527 84.58671299 -14.4375 82.875 C-14.35371094 81.96492188 -14.26992187 81.05484375 -14.18359375 80.1171875 C-14.09271484 79.06917969 -14.09271484 79.06917969 -14 78 C-13.34 78 -12.68 78 -12 78 C-12 73.38 -12 68.76 -12 64 C-11.34 64 -10.68 64 -10 64 C-10 60.7 -10 57.4 -10 54 C-9.34 54 -8.68 54 -8 54 C-8 50.04 -8 46.08 -8 42 C-7.34 42 -6.68 42 -6 42 C-6 38.04 -6 34.08 -6 30 C-5.34 30 -4.68 30 -4 30 C-4 26.04 -4 22.08 -4 18 C-3.34 18 -2.68 18 -2 18 C-1.90912109 16.80503906 -1.90912109 16.80503906 -1.81640625 15.5859375 C-1.73261719 14.52632812 -1.64882812 13.46671875 -1.5625 12.375 C-1.48128906 11.33085938 -1.40007812 10.28671875 -1.31640625 9.2109375 C-1.01045189 6.10606737 -0.52730586 3.07376158 0 0 Z " fill="#158CC3" transform="translate(144,96)"/>
<path d="M0 0 C-0.0314209 0.64324219 -0.0628418 1.28648437 -0.09521484 1.94921875 C-0.73284666 17.03714809 0.0565465 28.36739001 6.98144531 41.92089844 C16.1154591 59.86490059 19.43399987 77.70680042 13.19750977 97.24780273 C8.92952675 109.41761806 1.83453505 118.93065555 -9.7734375 124.89453125 C-18.33853561 127.82906244 -28.60893233 127.2442096 -36.765625 123.31640625 C-49.67367721 115.71148738 -56.69188246 104.6746514 -60.51513672 90.38085938 C-62.33476202 81.44582112 -62.25111813 71.54283168 -59 63 C-58.50113281 61.29457031 -58.50113281 61.29457031 -57.9921875 59.5546875 C-50.50903292 34.90737417 -30.92993151 18.59281337 -10 5 C-9.27474121 4.52643066 -8.54948242 4.05286133 -7.80224609 3.56494141 C-6.73031006 2.87730713 -6.73031006 2.87730713 -5.63671875 2.17578125 C-4.98791748 1.75852783 -4.33911621 1.34127441 -3.6706543 0.91137695 C-2 0 -2 0 0 0 Z " fill="#F6F8FB" transform="translate(246,144)"/>
<path d="M0 0 C2.3984375 -0.125 2.3984375 -0.125 5 0 C7.19855496 2.7059138 8.14624827 5.40443436 9.33203125 8.68359375 C11.19606445 13.69905824 13.64135711 18.3584171 16.12695312 23.08789062 C18.31054447 27.33536793 19.83652807 31.36419735 21 36 C22.32 36 23.64 36 25 36 C25.10957031 34.98164062 25.21914063 33.96328125 25.33203125 32.9140625 C26.51985163 22.20452071 28.13824061 11.61202854 30 1 C32.475 0.505 32.475 0.505 35 0 C47 19.10679612 47 19.10679612 47 23 C47.66 23 48.32 23 49 23 C49.37511719 21.77216797 49.37511719 21.77216797 49.7578125 20.51953125 C51.20395071 16.42213965 52.96658126 12.58592414 54.875 8.6875 C55.38353516 7.59598633 55.38353516 7.59598633 55.90234375 6.48242188 C56.9296875 4.38671875 56.9296875 4.38671875 59 1 C61.12939453 0.28833008 61.12939453 0.28833008 63 0 C63 0.66 63 1.32 63 2 C63.99 2.33 64.98 2.66 66 3 C66.71408216 7.37793136 67.42611282 11.75618988 68.13623047 16.13476562 C68.378177 17.62476658 68.6206874 19.11467608 68.86376953 20.60449219 C69.21274141 22.74390344 69.55969504 24.88363359 69.90625 27.0234375 C70.11572266 28.31169434 70.32519531 29.59995117 70.54101562 30.92724609 C71 34 71 34 71 36 C72.65 36.33 74.3 36.66 76 37 C76 38.32 76 39.64 76 41 C70.39 41 64.78 41 59 41 C57.74636771 35.98547083 57.42933843 31.15206122 57 26 C54.36 30.95 51.72 35.9 49 41 C47.35 41 45.7 41 44 41 C41.36 36.05 38.72 31.1 36 26 C35.67 26 35.34 26 35 26 C34.34 29.3 33.68 32.6 33 36 C34.98 36.495 34.98 36.495 37 37 C37 37.99 37 38.98 37 40 C36 41 36 41 33.40795898 41.11352539 C32.28204346 41.10828857 31.15612793 41.10305176 29.99609375 41.09765625 C28.78115234 41.09443359 27.56621094 41.09121094 26.31445312 41.08789062 C25.03505859 41.07951172 23.75566406 41.07113281 22.4375 41.0625 C21.15423828 41.05798828 19.87097656 41.05347656 18.54882812 41.04882812 C15.36583978 41.03699545 12.18294238 41.02051068 9 41 C8.49440092 39.56445975 7.9957251 38.1264798 7.5 36.6875 C7.2215625 35.88699219 6.943125 35.08648438 6.65625 34.26171875 C6 32 6 32 6 29 C3.03 29 0.06 29 -3 29 C-3.144375 29.78375 -3.28875 30.5675 -3.4375 31.375 C-4 34 -4 34 -5 36 C-4.01 36.33 -3.02 36.66 -2 37 C-2 38.32 -2 39.64 -2 41 C-13.22 41 -24.44 41 -36 41 C-36 39.35 -36 37.7 -36 36 C-35.01 36 -34.02 36 -33 36 C-32.67 26.76 -32.34 17.52 -32 8 C-34.64 8 -37.28 8 -40 8 C-40.66 9.32 -41.32 10.64 -42 12 C-43.32 12 -44.64 12 -46 12 C-47.46761039 8.18421299 -46.4801051 5.70026276 -45 2 C-44 1 -44 1 -40.67358398 0.88647461 C-39.19774444 0.88663371 -37.72189931 0.89232686 -36.24609375 0.90234375 C-35.47064713 0.9037587 -34.6952005 0.90517365 -33.89625549 0.90663147 C-31.40996506 0.91224655 -28.9237634 0.92480154 -26.4375 0.9375 C-24.75586067 0.94251306 -23.07421994 0.9470763 -21.39257812 0.95117188 C-17.26168434 0.96222087 -13.13085724 0.97949555 -9 1 C-9 4.96 -9 8.92 -9 13 C-11.475 12.505 -11.475 12.505 -14 12 C-14.495 10.515 -14.495 10.515 -15 9 C-17.31 8.67 -19.62 8.34 -22 8 C-22 17.24 -22 26.48 -22 36 C-19.36 36 -16.72 36 -14 36 C-13.86464844 35.46375 -13.72929687 34.9275 -13.58984375 34.375 C-11.6254224 27.22309472 -8.73798207 20.62519779 -5.71875 13.875 C-3.67522547 9.30395829 -1.80705483 4.66916031 0 0 Z " fill="#3E2F8A" transform="translate(269,483)"/>
<path d="M0 0 C5.98575429 0.29659143 8.4789543 2.79614771 12.375 6.9375 C12.92027344 7.48857422 13.46554688 8.03964844 14.02734375 8.60742188 C18 12.70453477 18 12.70453477 18 15 C18.7425 15.2475 19.485 15.495 20.25 15.75 C23 17 23 17 27 21 C26.67 16.38 26.34 11.76 26 7 C25.01 6.67 24.02 6.34 23 6 C23 4.35 23 2.7 23 1 C28.28 1 33.56 1 39 1 C39 2.65 39 4.3 39 6 C38.01 6.99 37.02 7.98 36 9 C35.67 18.9 35.34 28.8 35 39 C9.92 39 -15.16 39 -41 39 C-41 37.68 -41 36.36 -41 35 C-40.01 35 -39.02 35 -38 35 C-38 25.76 -38 16.52 -38 7 C-39.32 6.67 -40.64 6.34 -42 6 C-42 4.35 -42 2.7 -42 1 C-38.12514365 0.91248587 -34.25054357 0.85943565 -30.375 0.8125 C-28.73337891 0.77479492 -28.73337891 0.77479492 -27.05859375 0.73632812 C-16.71178492 0.64226623 -16.71178492 0.64226623 -12 4 C-9.31538284 8.02692574 -9.3076778 11.26644825 -10 16 C-11.10192442 18.35716006 -12.33186538 19.96696094 -14 22 C-13.16373916 23.26204933 -12.30479184 24.50907069 -11.4375 25.75 C-10.96183594 26.44609375 -10.48617187 27.1421875 -9.99609375 27.859375 C-7.31760162 30.73180884 -4.46891956 32.16860846 -1 34 C-1.00523682 33.04109863 -1.01047363 32.08219727 -1.01586914 31.09423828 C-1.03394679 27.54216441 -1.04544215 23.99009463 -1.05493164 20.43798828 C-1.05996552 18.89956987 -1.06679308 17.36115625 -1.07543945 15.82275391 C-1.08754639 13.61359474 -1.09323769 11.40449874 -1.09765625 9.1953125 C-1.10281754 8.50567413 -1.10797882 7.81603577 -1.11329651 7.10549927 C-1.11387171 2.22774341 -1.11387171 2.22774341 0 0 Z " fill="#3E308C" transform="translate(181,545)"/>
<path d="M0 0 C6.27 0 12.54 0 19 0 C19.33 1.65 19.66 3.3 20 5 C18.68 5 17.36 5 16 5 C16 16.88 16 28.76 16 41 C19.3 41 22.6 41 26 41 C26.33 29.78 26.66 18.56 27 7 C28.65 6.67 30.3 6.34 32 6 C34.2109375 7.66015625 34.2109375 7.66015625 36.375 10.0625 C39.05200089 12.93039814 41.66646843 15.6822543 44.6875 18.1875 C47.99380758 20.94533132 50.99285925 23.91951435 54 27 C54 22.38 54 17.76 54 13 C52.68 12.67 51.36 12.34 50 12 C50.33 10.35 50.66 8.7 51 7 C53.45898655 6.91923037 55.91533742 6.85962857 58.375 6.8125 C59.07367188 6.78736328 59.77234375 6.76222656 60.4921875 6.73632812 C62.5234375 6.70703125 62.5234375 6.70703125 66 7 C66.99 8.485 66.99 8.485 68 10 C67.35184326 10.35505615 66.70368652 10.7101123 66.03588867 11.07592773 C63.70310573 12.89579365 63.70310573 12.89579365 63.4699707 16.06274414 C63.45538818 17.29114014 63.44080566 18.51953613 63.42578125 19.78515625 C63.40453438 20.77049599 63.40453438 20.77049599 63.38285828 21.77574158 C63.34096906 23.87149457 63.32572241 25.96638739 63.3125 28.0625 C63.28344003 30.16178259 63.24889525 32.26084734 63.21000671 34.35997009 C63.17725527 36.26205059 63.1592039 38.16436714 63.1418457 40.06665039 C63 43 63 43 62 45 C41.54 45 21.08 45 0 45 C0 30.15 0 15.3 0 0 Z " fill="#3E308B" transform="translate(0,539)"/>
<path d="M0 0 C3.68734775 -0.08776185 7.37442347 -0.14064603 11.0625 -0.1875 C12.62000977 -0.22520508 12.62000977 -0.22520508 14.20898438 -0.26367188 C20.26862594 -0.32138275 24.68961127 -0.0230608 30 3 C32.6196303 6.71114293 32.03087398 10.39768777 31.58203125 14.71875 C30.86873857 17.51447432 29.57020402 19.59602188 28 22 C29.40464296 23.82183392 30.8241624 25.63220561 32.25 27.4375 C33.03890625 28.44683594 33.8278125 29.45617187 34.640625 30.49609375 C37.04557495 33.04836679 37.74438476 33.39632965 41 34 C41.08674429 29.54178834 41.14030513 25.08379196 41.1875 20.625 C41.21263672 19.35398437 41.23777344 18.08296875 41.26367188 16.7734375 C41.27817383 14.95585937 41.27817383 14.95585937 41.29296875 13.1015625 C41.31653442 11.42054443 41.31653442 11.42054443 41.34057617 9.70556641 C41.22818604 8.81272949 41.1157959 7.91989258 41 7 C40.01 6.34 39.02 5.68 38 5 C38 3.35 38 1.7 38 0 C43.94 0 49.88 0 56 0 C56 1.65 56 3.3 56 5 C55.01 5.33 54.02 5.66 53 6 C53 15.24 53 24.48 53 34 C54.32 34.33 55.64 34.66 57 35 C57 36.65 57 38.3 57 40 C52.96174934 40.12406007 48.92424362 40.21455045 44.88452148 40.2746582 C43.51192898 40.29972617 42.13946898 40.33379082 40.76733398 40.37719727 C38.78949304 40.43817531 36.81065816 40.46361009 34.83203125 40.48828125 C33.04889526 40.52755737 33.04889526 40.52755737 31.22973633 40.56762695 C25.44158124 39.55035727 22.58768402 34.65440842 19.1875 30.1875 C18.58292969 29.39730469 17.97835937 28.60710938 17.35546875 27.79296875 C16.68451172 26.90544922 16.68451172 26.90544922 16 26 C16 28.97 16 31.94 16 35 C17.32 35 18.64 35 20 35 C20 36.65 20 38.3 20 40 C13.73 40 7.46 40 1 40 C0.67 38.68 0.34 37.36 0 36 C1.98 35.505 1.98 35.505 4 35 C3.67 25.43 3.34 15.86 3 6 C2.01 5.67 1.02 5.34 0 5 C0 3.35 0 1.7 0 0 Z " fill="#3E308C" transform="translate(164,484)"/>
<path d="M0 0 C2.6875 -0.3125 2.6875 -0.3125 5 0 C6.27162656 2.85381389 7.54215438 5.70811571 8.8125 8.5625 C9.16892578 9.36236328 9.52535156 10.16222656 9.89257812 10.98632812 C11.48843076 14.57333634 13.07374959 18.16138447 14.59375 21.78125 C15.82851163 24.60748218 17.16326124 27.25978325 18.6875 29.9375 C19.12449219 30.70964844 19.56148438 31.48179687 20.01171875 32.27734375 C20.33785156 32.84582031 20.66398437 33.41429687 21 34 C22.98 34 24.96 34 27 34 C27.33 25.42 27.66 16.84 28 8 C25.36 8.33 22.72 8.66 20 9 C19.67 9.99 19.34 10.98 19 12 C17.68 12 16.36 12 15 12 C14.9729957 10.54176788 14.95360213 9.08339325 14.9375 7.625 C14.92589844 6.81289063 14.91429687 6.00078125 14.90234375 5.1640625 C15 3 15 3 16 1 C27.88 1 39.76 1 52 1 C52 4.63 52 8.26 52 12 C50.35 12 48.7 12 47 12 C46 11 45 10 44 9 C42.02 8.67 40.04 8.34 38 8 C38.33 16.91 38.66 25.82 39 35 C40.65 35 42.3 35 44 35 C44 36.32 44 37.64 44 39 C22.88 39 1.76 39 -20 39 C-20 37.68 -20 36.36 -20 35 C-19.21625 34.938125 -18.4325 34.87625 -17.625 34.8125 C-16.75875 34.544375 -15.8925 34.27625 -15 34 C-13.90413635 31.73092659 -13.90413635 31.73092659 -13 29 C-11.36686523 24.99473243 -9.71527821 20.99719521 -8.0625 17 C-7.61970703 15.91976562 -7.17691406 14.83953125 -6.72070312 13.7265625 C-6.07198242 12.16035156 -6.07198242 12.16035156 -5.41015625 10.5625 C-4.82439819 9.14130859 -4.82439819 9.14130859 -4.22680664 7.69140625 C-2.98264015 4.96191543 -1.71924057 2.46087919 0 0 Z " fill="#3E2F8B" transform="translate(239,545)"/>
<path d="M0 0 C0.77794922 -0.02900391 1.55589844 -0.05800781 2.35742188 -0.08789062 C9.00702855 -0.15998811 14.18884556 1.50771862 19.1875 5.99609375 C23.10591444 12.10501071 23.39570569 18.22400199 22.3125 25.3125 C20.33672681 30.87692246 17.47867948 35.32223975 12.3125 38.3125 C8.18099219 38.95810796 4.11233216 38.96154857 -0.0625 38.9375 C-1.72925781 38.98583984 -1.72925781 38.98583984 -3.4296875 39.03515625 C-8.69130713 39.04142008 -12.65006619 38.9780311 -16.8515625 35.5859375 C-21.95531414 30.26900704 -22.08615264 25.08941815 -22.05322266 17.91674805 C-21.9070539 12.44882968 -21.20017106 9.47224204 -17.6875 5.3125 C-11.84386649 0.78070258 -7.21779402 0.08752378 0 0 Z " fill="#3E308B" transform="translate(338.6875,545.6875)"/>
<path d="M0 0 C1.65 0 3.3 0 5 0 C6.46237616 3.37326229 7.91917164 6.74890724 9.375 10.125 C9.7875 11.07632813 10.2 12.02765625 10.625 13.0078125 C12.61539926 17.6306753 14.43256662 22.21400196 16 27 C17.43990623 29.17032476 17.43990623 29.17032476 19 31 C19.66 31.99 20.32 32.98 21 34 C23.97 34.495 23.97 34.495 27 35 C27 26.09 27 17.18 27 8 C25.68 7.34 24.36 6.68 23 6 C23 4.35 23 2.7 23 1 C25.95887459 0.91930342 28.9155659 0.85965335 31.875 0.8125 C32.71675781 0.78736328 33.55851562 0.76222656 34.42578125 0.73632812 C35.23144531 0.72666016 36.03710938 0.71699219 36.8671875 0.70703125 C37.98262939 0.68346558 37.98262939 0.68346558 39.12060547 0.65942383 C40.05090576 0.82800903 40.05090576 0.82800903 41 1 C41.66 1.99 42.32 2.98 43 4 C42.67 4.66 42.34 5.32 42 6 C41.01 6.33 40.02 6.66 39 7 C39 15.25 39 23.5 39 32 C41.97 32.495 41.97 32.495 45 33 C47.27144074 31.14567913 47.27144074 31.14567913 49 29 C49.66 29 50.32 29 51 29 C51 32.3 51 35.6 51 39 C27.57 39 4.14 39 -20 39 C-20 37.68 -20 36.36 -20 35 C-19.08347656 34.60167969 -19.08347656 34.60167969 -18.1484375 34.1953125 C-11.69512687 30.60492513 -9.59424398 21.51258283 -7.24414062 14.95263672 C-5.32226441 9.65250147 -3.00396103 4.78507067 0 0 Z " fill="#3E2F8A" transform="translate(423,545)"/>
<path d="M0 0 C6.39989812 0.16738195 9.2229295 3.56439026 13.375 7.9375 C14.01566406 8.58396484 14.65632813 9.23042969 15.31640625 9.89648438 C20 14.70490738 20 14.70490738 20 17 C20.78375 17.28875 21.5675 17.5775 22.375 17.875 C25 19 25 19 27 21 C26.67 16.38 26.34 11.76 26 7 C25.01 6.67 24.02 6.34 23 6 C23 4.35 23 2.7 23 1 C28.28 1 33.56 1 39 1 C39 2.65 39 4.3 39 6 C38.5155542 6.45673096 38.0311084 6.91346191 37.53198242 7.3840332 C35.1126313 9.93601489 35.56083686 12.4163328 35.48828125 15.85546875 C35.43861206 17.67147583 35.43861206 17.67147583 35.38793945 19.52416992 C35.36304443 21.06306885 35.33814941 22.60196777 35.3125 24.1875 C35.209375 29.075625 35.10625 33.96375 35 39 C21.8 39 8.6 39 -5 39 C-5 37.68 -5 36.36 -5 35 C-3.515 34.505 -3.515 34.505 -2 34 C-1.97494385 33.04109863 -1.9498877 32.08219727 -1.92407227 31.09423828 C-1.8300138 27.54201523 -1.72978942 23.98998844 -1.62768555 20.43798828 C-1.58433074 18.89962347 -1.54265605 17.36121037 -1.50268555 15.82275391 C-1.44499602 13.6134586 -1.38129821 11.40440652 -1.31640625 9.1953125 C-1.29969376 8.50567413 -1.28298126 7.81603577 -1.26576233 7.10549927 C-1.11387171 2.22774341 -1.11387171 2.22774341 0 0 Z " fill="#3E2F8C" transform="translate(365,545)"/>
<path d="M0 0 C6.93 0 13.86 0 21 0 C21 1.65 21 3.3 21 5 C20.01 5 19.02 5 18 5 C18 14.57 18 24.14 18 34 C19.65 34.33 21.3 34.66 23 35 C23 35.99 23 36.98 23 38 C12.77 38 2.54 38 -8 38 C-8 36.68 -8 35.36 -8 34 C-9.65 34 -11.3 34 -13 34 C-14.3308911 31.33821779 -14.11268993 29.31260604 -14.09765625 26.3359375 C-14.09443359 25.21445312 -14.09121094 24.09296875 -14.08789062 22.9375 C-14.07951172 21.761875 -14.07113281 20.58625 -14.0625 19.375 C-14.05798828 18.19164062 -14.05347656 17.00828125 -14.04882812 15.7890625 C-14.03701467 12.85932493 -14.02054258 9.92968728 -14 7 C-8.375 6.75 -8.375 6.75 -5 9 C-5 9.66 -5 10.32 -5 11 C-3.35 11 -1.7 11 0 11 C0 7.37 0 3.74 0 0 Z " fill="#000007" transform="translate(291,546)"/>
<path d="M0 0 C4.04152915 -0.08746928 8.08281305 -0.14054982 12.125 -0.1875 C13.26710937 -0.21263672 14.40921875 -0.23777344 15.5859375 -0.26367188 C26.39696184 -0.35795406 26.39696184 -0.35795406 31 3 C33.12030765 5.15609343 33.89670022 6.38627775 34.3984375 9.3671875 C34.33616325 16.03053229 33.41919305 20.21426255 28.9375 25.375 C24.54436333 27.80524582 20.97747239 27.26546519 16 27 C16 31.62 16 36.24 16 41 C17.65 41 19.3 41 21 41 C21.66 42.32 22.32 43.64 23 45 C20.54724859 46.2263757 18.9494219 46.11415314 16.2109375 46.09765625 C15.26992187 46.09443359 14.32890625 46.09121094 13.359375 46.08789062 C12.37453125 46.07951172 11.3896875 46.07113281 10.375 46.0625 C8.88613281 46.05573242 8.88613281 46.05573242 7.3671875 46.04882812 C4.9113984 46.03702145 2.45572896 46.020554 0 46 C0.33 44.35 0.66 42.7 1 41 C2.485 40.505 2.485 40.505 4 40 C4.33 28.78 4.66 17.56 5 6 C3.35 5.67 1.7 5.34 0 5 C0 3.35 0 1.7 0 0 Z " fill="#3D308B" transform="translate(128,478)"/>
<path d="M0 0 C9.24 0 18.48 0 28 0 C28 9 28 9 27 11 C24.5625 10.625 24.5625 10.625 22 10 C21.67 9.34 21.34 8.68 21 8 C17.97065509 7.34227572 17.97065509 7.34227572 15 7 C15 9.64 15 12.28 15 15 C16.953125 14.47916667 18.90625 13.95833333 20.859375 13.4375 C23 13 23 13 27 13 C27 16.96 27 20.92 27 25 C25.68 25.33 24.36 25.66 23 26 C21.6256709 24.70896357 20.29103643 23.3743291 19 22 C18.01 22 17.02 22 16 22 C16 25.3 16 28.6 16 32 C19.465 31.505 19.465 31.505 23 31 C23.33 30.01 23.66 29.02 24 28 C25.65 28 27.3 28 29 28 C29 31.3 29 34.6 29 38 C19.43 38 9.86 38 0 38 C0.33 36.68 0.66 35.36 1 34 C1.99 33.505 1.99 33.505 3 33 C3 24.09 3 15.18 3 6 C1.68 5.67 0.36 5.34 -1 5 C-0.67 3.35 -0.34 1.7 0 0 Z " fill="#3E308A" transform="translate(109,546)"/>
<path d="M0 0 C11.88 0 23.76 0 36 0 C36 3.63 36 7.26 36 11 C34.35 11 32.7 11 31 11 C30 10 29 9 28 8 C25.03 7.505 25.03 7.505 22 7 C22.33 15.91 22.66 24.82 23 34 C24.65 34 26.3 34 28 34 C28 35.32 28 36.64 28 38 C21.07 38 14.14 38 7 38 C7 36.68 7 35.36 7 34 C8.98 33.505 8.98 33.505 11 33 C11.33 24.42 11.66 15.84 12 7 C9.36 7.33 6.72 7.66 4 8 C3.67 8.99 3.34 9.98 3 11 C1.68 11 0.36 11 -1 11 C-1.0270043 9.54176788 -1.04639787 8.08339325 -1.0625 6.625 C-1.07410156 5.81289063 -1.08570313 5.00078125 -1.09765625 4.1640625 C-1 2 -1 2 0 0 Z " fill="#3D2F88" transform="translate(255,546)"/>
<path d="M0 0 C11.88 0 23.76 0 36 0 C36 3.63 36 7.26 36 11 C34.35 11 32.7 11 31 11 C30 10 29 9 28 8 C25.03 7.505 25.03 7.505 22 7 C22.33 15.58 22.66 24.16 23 33 C24.65 33.33 26.3 33.66 28 34 C28 35.32 28 36.64 28 38 C21.4 38 14.8 38 8 38 C8.33 36.68 8.66 35.36 9 34 C9.99 33.505 9.99 33.505 11 33 C11.33 24.42 11.66 15.84 12 7 C5.40470244 8.2715356 5.40470244 8.2715356 3 11 C1.68 11 0.36 11 -1 11 C-1.0270043 9.54176788 -1.04639787 8.08339325 -1.0625 6.625 C-1.07410156 5.81289063 -1.08570312 5.00078125 -1.09765625 4.1640625 C-1 2 -1 2 0 0 Z " fill="#3E3088" transform="translate(71,546)"/>
<path d="M0 0 C6.27 0 12.54 0 19 0 C19 1.65 19 3.3 19 5 C18.01 5 17.02 5 16 5 C16 14.57 16 24.14 16 34 C17.65 34.33 19.3 34.66 21 35 C21 35.99 21 36.98 21 38 C14.07 38 7.14 38 0 38 C0.33 36.68 0.66 35.36 1 34 C1.99 34 2.98 34 4 34 C3.67 24.76 3.34 15.52 3 6 C2.01 5.67 1.02 5.34 0 5 C0 3.35 0 1.7 0 0 Z " fill="#3E2F8B" transform="translate(293,546)"/>
<path d="M0 0 C3.95490615 4.72391568 4.71144758 8.1198523 4.55859375 14.20703125 C4.08779909 17.99126681 2.93215616 20.00534384 0.25 22.6875 C-3.4687799 23.78936071 -6.11413269 23.77477591 -9.9375 23.25 C-14.06285398 20.95813668 -15.4313574 18.14717892 -16.75 13.6875 C-17.52853078 8.52377541 -17.31778078 4.84333945 -15 0.125 C-12.75 -2.3125 -12.75 -2.3125 -10.875 -3.25 C-6.2506207 -3.38601116 -3.62304275 -3.04664958 0 0 Z " fill="#000004" transform="translate(344.75,555.3125)"/>
<path d="M0 0 C5.63926372 2.64700134 8.6249409 5.66479481 12.2890625 10.671875 C14.68938988 13.93807389 17.33642661 16.94663538 20 20 C15.05 20 10.1 20 5 20 C5 18.68 5 17.36 5 16 C3.68 16 2.36 16 1 16 C-0.12862175 10.63904667 -0.09688221 5.44693314 0 0 Z " fill="#010105" transform="translate(34,564)"/>
<path d="M0 0 C6.25 4.4921875 6.25 4.4921875 8 6 C8 6.66 8 7.32 8 8 C8.57234375 8.24621094 9.1446875 8.49242187 9.734375 8.74609375 C12.36518743 10.20211235 14.14808905 11.91777234 16.25 14.0625 C16.95640625 14.77535156 17.6628125 15.48820313 18.390625 16.22265625 C20 18 20 18 20 19 C15.05 19 10.1 19 5 19 C4.67 18.01 4.34 17.02 4 16 C2.68 15.34 1.36 14.68 0 14 C0 9.38 0 4.76 0 0 Z " fill="#010105" transform="translate(372,565)"/>
<path d="M0 0 C9.14973262 6.6684492 9.14973262 6.6684492 13 11 C13 11.66 13 12.32 13 13 C13.598125 13.2475 14.19625 13.495 14.8125 13.75 C17 15 17 15 20 19 C15.05 19 10.1 19 5 19 C4.67 18.01 4.34 17.02 4 16 C2.68 15.34 1.36 14.68 0 14 C0 9.38 0 4.76 0 0 Z " fill="#010005" transform="translate(188,565)"/>
<path d="M0 0 C1.32 0 2.64 0 4 0 C4 11.55 4 23.1 4 35 C2.02 35.495 2.02 35.495 0 36 C0 24.12 0 12.24 0 0 Z " fill="#000000" transform="translate(0,544)"/>
<path d="M0 0 C2.97 0 5.94 0 9 0 C10.73734147 3.80043446 11 5.59714577 11 10 C7.7 10 4.4 10 1 10 C-1.17766075 5.64467851 -1.03039555 4.53374042 0 0 Z " fill="#000004" transform="translate(419,574)"/>
<path d="M0 0 C2.05078125 0.03255208 4.1015625 0.06510417 6.15234375 0.09765625 C7.88968522 3.89809071 8.15234375 5.69480202 8.15234375 10.09765625 C4.85234375 10.09765625 1.55234375 10.09765625 -1.84765625 10.09765625 C-3.92886139 5.93524596 -4.08956758 5.27499436 -2.84765625 1.09765625 C-1.84765625 0.09765625 -1.84765625 0.09765625 0 0 Z " fill="#010105" transform="translate(237.84765625,573.90234375)"/>
<path d="M0 0 C5.2 1.3 5.2 1.3 7 4 C7.51451424 8.04261188 7.65485184 10.11933718 5.1875 13.4375 C3 15 3 15 0 15 C0 10.05 0 5.1 0 0 Z " fill="#020008" transform="translate(144,485)"/>
<path d="M0 0 C1.32 0 2.64 0 4 0 C5.98362069 2.91708924 5.9876191 4.12380904 5.625 7.75 C5.41875 8.8225 5.2125 9.895 5 11 C3.0625 11.5625 3.0625 11.5625 1 12 C0 11 0 11 -0.09765625 8.49609375 C-0.08605469 7.48675781 -0.07445312 6.47742188 -0.0625 5.4375 C-0.05347656 4.42558594 -0.04445312 3.41367187 -0.03515625 2.37109375 C-0.02355469 1.58863281 -0.01195312 0.80617188 0 0 Z " fill="#030113" transform="translate(179,491)"/>
<path d="M0 0 C2.79784711 2.79784711 4.60711005 5.35102555 6.6875 8.6875 C7.31011719 9.68136719 7.93273437 10.67523437 8.57421875 11.69921875 C9.04472656 12.45847656 9.51523438 13.21773437 10 14 C8.35 14 6.7 14 5 14 C4.67 13.01 4.34 12.02 4 11 C2.68 10.67 1.36 10.34 0 10 C0 6.7 0 3.4 0 0 Z " fill="#010110" transform="translate(155,570)"/>
<path d="M0 0 C4 1 4 1 6 4 C5.6758631 7.32240324 5.39223697 8.60776303 3 11 C2.01 11 1.02 11 0 11 C0 7.37 0 3.74 0 0 Z " fill="#010010" transform="translate(155,553)"/>
<path d="M0 0 C1.98 0 3.96 0 6 0 C6 0.66 6 1.32 6 2 C4.02 2.66 2.04 3.32 0 4 C0 4.66 0 5.32 0 6 C-0.66 6 -1.32 6 -2 6 C-2.66 7.98 -3.32 9.96 -4 12 C-4.66 12 -5.32 12 -6 12 C-6 10.02 -6 8.04 -6 6 C-5.34 6 -4.68 6 -4 6 C-4 5.34 -4 4.68 -4 4 C-3.34 4 -2.68 4 -2 4 C-2 3.34 -2 2.68 -2 2 C-1.34 2 -0.68 2 0 2 C0 1.34 0 0.68 0 0 Z " fill="#E3DE20" transform="translate(378,372)"/>
<path d="M0 0 C-0.33 6.6 -0.66 13.2 -1 20 C-1.33 20 -1.66 20 -2 20 C-2 14.72 -2 9.44 -2 4 C-3.65 4.66 -5.3 5.32 -7 6 C-7.99 5.67 -8.98 5.34 -10 5 C-8.71186658 4.16121545 -7.41936744 3.32913217 -6.125 2.5 C-5.40570313 2.0359375 -4.68640625 1.571875 -3.9453125 1.09375 C-2 0 -2 0 0 0 Z " fill="#AFE1F5" transform="translate(246,144)"/>
<path d="M0 0 C0.66 0 1.32 0 2 0 C2 1.32 2 2.64 2 4 C2.66 4 3.32 4 4 4 C4 5.32 4 6.64 4 8 C3.01 8.33 2.02 8.66 1 9 C-0.22969878 12.51190809 -0.22969878 12.51190809 -1 16 C-1.33 16 -1.66 16 -2 16 C-2 13.36 -2 10.72 -2 8 C-1.34 8 -0.68 8 0 8 C0 5.36 0 2.72 0 0 Z " fill="#B9C850" transform="translate(30,182)"/>
<path d="M0 0 C0.33 0 0.66 0 1 0 C0.03644647 12.66970387 0.03644647 12.66970387 -1 18 C-1.33 18 -1.66 18 -2 18 C-2 12.72 -2 7.44 -2 2 C-1.34 2 -0.68 2 0 2 C0 1.34 0 0.68 0 0 Z " fill="#478E8A" transform="translate(194,310)"/>
<path d="M0 0 C0.66 0.33 1.32 0.66 2 1 C2 4 2 4 0.57421875 5.60546875 C-0.35970703 6.38857422 -0.35970703 6.38857422 -1.3125 7.1875 C-2.23482422 7.98220703 -2.23482422 7.98220703 -3.17578125 8.79296875 C-5 10 -5 10 -8 10 C-8 9.34 -8 8.68 -8 8 C-7.34 8 -6.68 8 -6 8 C-6 7.34 -6 6.68 -6 6 C-5.34 6 -4.68 6 -4 6 C-4 5.34 -4 4.68 -4 4 C-3.34 4 -2.68 4 -2 4 C-2 3.34 -2 2.68 -2 2 C-1.34 2 -0.68 2 0 2 C0 1.34 0 0.68 0 0 Z " fill="#B6C951" transform="translate(84,84)"/>
<path d="M0 0 C0 0.33 0 0.66 0 1 C-1.98 1 -3.96 1 -6 1 C-6 1.66 -6 2.32 -6 3 C-9.96 3 -13.92 3 -18 3 C-13.80037019 -1.19962981 -5.654559 -0.10097427 0 0 Z " fill="#308EA6" transform="translate(270,441)"/>
<path d="M0 0 C0.66 0 1.32 0 2 0 C2 0.66 2 1.32 2 2 C2.66 2 3.32 2 4 2 C4.66 3.98 5.32 5.96 6 8 C4.68 8 3.36 8 2 8 C2 7.34 2 6.68 2 6 C1.34 6 0.68 6 0 6 C0 4.02 0 2.04 0 0 Z " fill="#2594B8" transform="translate(60,350)"/>
<path d="M0 0 C0.33 0 0.66 0 1 0 C0.88617347 1.95901454 0.75858875 3.9172338 0.625 5.875 C0.55539063 6.96554687 0.48578125 8.05609375 0.4140625 9.1796875 C0 12 0 12 -2 14 C-2 10.7 -2 7.4 -2 4 C-1.34 4 -0.68 4 0 4 C0 2.68 0 1.36 0 0 Z " fill="#C4CF5C" transform="translate(112,274)"/>
<path d="M0 0 C0.66 0.99 1.32 1.98 2 3 C1.125 5.6875 1.125 5.6875 0 8 C-0.99 8 -1.98 8 -3 8 C-1.125 1.125 -1.125 1.125 0 0 Z " fill="#DCEAF0" transform="translate(193,191)"/>
<path d="M0 0 C0.33 0 0.66 0 1 0 C0.88617347 1.95901454 0.75858875 3.9172338 0.625 5.875 C0.55539062 6.96554688 0.48578125 8.05609375 0.4140625 9.1796875 C0 12 0 12 -2 14 C-2.3690205 4.58997722 -2.3690205 4.58997722 0 0 Z " fill="#2482AE" transform="translate(370,188)"/>
<path d="M0 0 C0.66 0.33 1.32 0.66 2 1 C0.02 3.31 -1.96 5.62 -4 8 C-5.32 7.67 -6.64 7.34 -8 7 C-5.36 4.69 -2.72 2.38 0 0 Z " fill="#CCE5EF" transform="translate(220,160)"/>
<path d="M0 0 C1.32 0 2.64 0 4 0 C4 1.32 4 2.64 4 4 C2.02 4 0.04 4 -2 4 C-2 3.34 -2 2.68 -2 2 C-1.34 2 -0.68 2 0 2 C0 1.34 0 0.68 0 0 Z " fill="#2E91B8" transform="translate(336,416)"/>
<path d="M0 0 C0.66 0 1.32 0 2 0 C1.42655063 2.86724686 1.1385485 3.8614515 -1 6 C-1.99 6 -2.98 6 -4 6 C-4 5.34 -4 4.68 -4 4 C-3.34 4 -2.68 4 -2 4 C-2 3.34 -2 2.68 -2 2 C-1.34 2 -0.68 2 0 2 C0 1.34 0 0.68 0 0 Z " fill="#A3C160" transform="translate(98,70)"/>
</svg>
